<?xml version="1.0" standalone="no"?>
<!DOCTYPE svg PUBLIC "-//W3C//DTD SVG 20010904//EN"
 "http://www.w3.org/TR/2001/REC-SVG-20010904/DTD/svg10.dtd">
<svg version="1.0" xmlns="http://www.w3.org/2000/svg"
 width="1325.000000pt" height="1325.000000pt" viewBox="0 0 1325.000000 1325.000000"
 preserveAspectRatio="xMidYMid meet">

<g transform="translate(0.000000,1325.000000) scale(0.100000,-0.100000)"
fill="#000000" stroke="none">
<path d="M6225 13189 c-1247 -78 -2433 -497 -3438 -1217 -1258 -900 -2160
-2220 -2542 -3717 -272 -1067 -272 -2183 0 -3250 200 -785 551 -1539 1023
-2198 771 -1078 1852 -1898 3099 -2352 1446 -526 3040 -526 4486 0 558 203
1100 489 1580 833 1078 771 1898 1852 2352 3099 526 1446 526 3040 0 4486
-203 558 -489 1100 -833 1580 -900 1258 -2220 2160 -3717 2542 -647 165 -1364
234 -2010 194z m234 -894 c163 -208 187 -235 213 -235 l28 0 0 235 0 235 175
0 175 0 0 -545 0 -545 -133 0 -132 0 -205 245 c-155 184 -211 244 -227 245
l-23 0 0 -245 0 -245 -175 0 -175 0 0 545 0 545 148 0 147 0 184 -235z m-1445
-51 c94 -24 174 -71 251 -149 138 -137 190 -315 150 -507 -25 -118 -77 -211
-170 -303 -129 -129 -261 -185 -434 -185 -53 0 -121 7 -151 15 -198 52 -361
220 -400 412 -18 83 -8 243 19 317 68 192 246 354 438 400 80 20 221 20 297 0z
m4176 -330 c70 -36 135 -71 143 -77 13 -10 14 -34 7 -177 -5 -91 -16 -304 -25
-475 -15 -318 -26 -515 -29 -515 -1 0 -69 36 -152 79 l-149 80 0 38 c0 21 4
66 7 99 l7 62 -190 102 c-165 88 -192 100 -207 89 -9 -8 -48 -40 -85 -72 l-69
-57 -91 49 c-51 27 -111 60 -134 73 -24 13 -43 25 -42 28 1 11 855 739 867
740 8 0 71 -30 142 -66z m-5706 -520 c94 -24 174 -71 251 -149 177 -176 212
-424 96 -660 -150 -304 -509 -429 -811 -283 -123 59 -232 193 -278 342 -22 71
-20 233 3 311 65 218 240 388 452 439 79 19 212 19 287 0z m7367 -767 c27 -60
31 -76 27 -135 -6 -98 -41 -168 -130 -256 -101 -99 -149 -121 -263 -121 -82 0
-96 3 -151 32 -61 32 -171 114 -273 204 l-54 48 -98 -91 -98 -90 -116 108
c-63 59 -115 112 -115 117 0 5 98 109 217 231 120 121 285 290 368 374 l150
153 252 -253 c224 -225 255 -261 284 -321z m-4323 378 c81 -19 140 -50 153
-79 10 -22 16 -23 172 -30 300 -12 649 -58 886 -116 456 -111 830 -328 1028
-595 219 -294 385 -848 513 -1715 34 -231 35 -253 17 -272 -8 -7 -17 -44 -20
-81 l-6 -68 32 6 c254 52 449 106 617 172 126 50 373 170 476 233 82 49 108
51 134 8 16 -27 20 -51 20 -134 0 -122 -23 -219 -79 -340 -82 -174 -169 -276
-340 -399 -46 -33 -113 -92 -150 -131 -67 -72 -86 -98 -253 -354 -102 -155
-188 -257 -269 -316 -36 -26 -48 -41 -44 -53 15 -38 36 -161 47 -272 13 -138
1 -285 -33 -394 l-20 -65 40 -66 c45 -75 94 -202 111 -292 25 -125 -7 -257
-79 -329 -26 -27 -30 -36 -21 -52 15 -29 12 -106 -6 -144 -15 -32 -14 -36 20
-136 75 -216 90 -306 69 -433 -13 -84 -13 -89 10 -150 43 -113 184 -376 244
-455 34 -44 34 -45 23 -98 -6 -30 -21 -66 -32 -81 -20 -25 -25 -26 -75 -20
-51 6 -59 4 -115 -31 -56 -35 -67 -37 -153 -41 -169 -8 -345 50 -380 125 -34
70 -14 191 85 518 87 289 91 323 77 608 -6 127 -8 141 -31 168 -46 54 -46 127
0 194 l25 37 -21 37 c-166 292 -264 626 -286 970 -4 61 -10 111 -14 111 -3 0
-14 -6 -25 -13 -17 -13 -17 -19 -5 -93 21 -136 25 -460 6 -614 -35 -285 -102
-494 -199 -621 -21 -28 -40 -71 -52 -117 -11 -40 -27 -79 -36 -88 -14 -13 -15
-22 -7 -51 18 -66 -5 -132 -67 -196 l-38 -39 22 -87 c20 -83 22 -160 5 -232
-5 -21 3 -36 45 -84 64 -73 101 -147 101 -200 0 -35 6 -47 46 -85 97 -94 157
-217 170 -352 7 -67 6 -68 -27 -101 -20 -20 -61 -44 -97 -57 -55 -20 -67 -30
-105 -83 l-44 -60 29 -75 c38 -96 45 -159 25 -199 -21 -41 -141 -150 -210
-191 -88 -53 -212 -103 -271 -109 -92 -10 -125 2 -182 64 l-52 56 -46 -7 c-26
-4 -49 -13 -50 -19 -36 -125 -91 -189 -223 -254 -107 -53 -178 -62 -245 -31
-33 16 -30 11 35 -55 101 -102 171 -230 207 -376 l11 -44 44 6 43 6 6 -37 c3
-20 22 -156 41 -302 20 -146 49 -364 65 -484 16 -121 28 -221 27 -222 -1 0
-108 -16 -237 -33 -129 -18 -244 -35 -255 -38 -18 -5 -18 -5 -2 20 30 47 18
41 -52 -26 -209 -197 -461 -289 -750 -274 -82 4 -127 12 -201 37 -244 82 -403
185 -549 354 -35 42 -40 45 -31 21 6 -16 16 -35 21 -41 16 -19 -31 -84 -56
-79 -29 7 -244 46 -287 52 -26 4 -37 11 -41 27 -2 11 -25 109 -50 216 -26 107
-85 355 -132 550 -46 195 -83 356 -81 357 5 5 306 -56 332 -66 17 -7 23 -24
34 -94 7 -47 16 -90 19 -95 6 -9 108 -32 141 -32 11 0 21 14 29 43 16 52 78
168 144 267 50 74 214 247 312 328 l50 41 -32 33 c-49 50 -63 95 -63 195 0 83
-2 92 -40 164 -37 71 -43 77 -78 84 -65 12 -159 63 -191 104 -53 67 -82 144
-88 231 -6 75 -4 84 26 145 24 48 45 75 79 100 59 43 176 89 222 88 33 0 37 3
55 46 30 73 105 191 154 242 25 26 61 66 79 88 38 47 131 96 217 114 43 8 74
23 105 48 25 20 57 44 72 53 34 22 122 46 170 46 l36 0 7 85 c8 88 2 135 -18
147 -43 28 -177 -22 -416 -155 -299 -165 -705 -363 -806 -392 -226 -66 -443
-33 -515 79 l-20 31 0 -92 c0 -81 2 -92 19 -98 10 -3 26 -14 36 -25 16 -18 16
-20 0 -48 -17 -28 -16 -31 70 -288 76 -225 87 -266 83 -311 -11 -133 -190
-377 -244 -332 -8 6 -27 9 -46 5 -82 -15 -176 105 -178 227 0 27 5 57 11 68 8
15 6 31 -7 65 -14 37 -16 65 -11 162 7 122 21 221 38 261 7 16 6 27 -2 38 -10
11 -10 22 0 48 10 30 9 37 -13 69 -46 69 -126 305 -147 436 -5 36 -21 94 -36
129 -14 36 -26 83 -27 104 -1 37 -4 41 -41 52 -107 32 -190 101 -232 191 -20
45 -24 66 -22 136 3 80 1 88 -48 208 -55 133 -83 231 -108 375 -8 50 -21 104
-29 120 -8 17 -17 56 -21 88 -5 43 -14 67 -34 90 -43 49 -53 75 -56 141 -1 38
-7 62 -15 64 -9 3 -11 -6 -7 -34 4 -22 9 -83 13 -136 8 -109 -2 -146 -56 -228
-19 -29 -26 -48 -20 -54 12 -12 13 -56 3 -56 -5 0 -8 -35 -7 -79 0 -70 4 -84
31 -127 17 -27 42 -69 56 -94 86 -153 117 -386 65 -485 -16 -29 -15 -32 8 -54
24 -23 41 -80 30 -106 -3 -8 -1 -15 5 -15 6 0 24 -11 40 -24 15 -13 57 -34 93
-46 36 -12 76 -30 90 -41 15 -12 40 -19 66 -19 23 0 50 -5 62 -11 24 -13 50
-72 42 -94 -4 -10 1 -22 12 -30 18 -13 18 -16 -9 -67 -57 -111 -187 -213 -285
-225 -89 -10 -180 48 -201 131 -17 64 -21 67 -75 57 -69 -13 -73 3 -38 154
l29 119 -20 33 c-19 33 -21 95 -3 134 6 13 -1 20 -28 29 -19 6 -53 25 -76 41
-64 46 -85 104 -114 309 -36 252 -40 314 -26 420 7 52 12 102 11 110 -1 8 -2
25 -2 38 -1 13 -17 49 -36 80 l-35 57 6 105 c4 88 37 259 61 320 4 12 -13 23
-70 47 -136 57 -233 121 -335 223 -130 130 -194 245 -207 377 -6 59 14 103 46
103 10 0 49 -23 87 -50 38 -28 85 -55 105 -61 67 -21 173 -6 341 46 l156 49 7
44 c4 24 5 45 3 47 -2 1 -82 -4 -178 -12 -221 -18 -367 -13 -635 26 -115 16
-311 42 -435 58 l-225 28 -43 39 c-65 60 -95 117 -89 169 2 23 9 83 15 132 6
50 16 169 22 265 22 368 84 676 201 1004 106 299 254 563 446 801 92 114 325
345 458 455 50 41 119 102 155 135 84 78 195 150 278 182 65 24 70 25 165 13
108 -12 293 -56 404 -94 l72 -24 40 51 c22 29 59 68 83 88 88 73 309 206 508
305 352 176 528 237 825 285 101 17 138 27 142 38 24 77 54 106 132 127 63 17
194 17 269 -1z m-4150 -982 c224 -135 428 -259 454 -275 l47 -29 -76 -117
c-42 -64 -79 -120 -82 -124 -4 -4 -94 46 -201 112 -107 66 -196 116 -198 112
-1 -4 34 -97 78 -207 44 -109 80 -205 80 -213 0 -8 -12 -36 -27 -62 l-27 -48
-116 -6 c-63 -4 -162 -10 -219 -14 l-104 -7 191 -134 190 -134 -45 -76 c-25
-42 -56 -95 -70 -118 -14 -24 -29 -43 -34 -43 -9 0 -882 523 -901 539 -4 4 24
59 63 124 l71 117 344 0 344 0 -156 311 -155 311 68 114 c37 62 69 114 71 114
1 0 186 -111 410 -247z m9170 -260 c166 -293 299 -528 310 -550 11 -19 6 -25
-66 -69 -42 -26 -86 -54 -97 -61 -20 -12 -28 -1 -149 207 -71 121 -131 220
-134 220 -13 0 -122 -64 -122 -72 0 -5 43 -91 95 -191 52 -100 95 -186 95
-192 0 -6 -28 -27 -62 -48 -35 -20 -77 -46 -93 -57 l-31 -19 -108 194 c-59
107 -112 195 -117 195 -10 0 -149 -68 -149 -73 0 -2 25 -50 56 -108 31 -57 81
-151 112 -209 30 -58 61 -114 69 -125 7 -11 13 -25 13 -32 0 -12 -171 -123
-189 -123 -13 0 -445 750 -436 758 3 4 210 120 458 258 249 139 453 252 454
253 1 1 42 -70 91 -156z m326 -3703 c275 -55 501 -102 503 -104 5 -5 -48 -320
-56 -328 -3 -3 -181 27 -395 69 -214 41 -392 71 -396 66 -4 -4 -28 -114 -55
-243 -26 -129 -48 -236 -49 -237 -2 -2 -250 48 -253 51 -2 2 4 34 12 72 8 38
40 193 70 344 85 424 84 418 103 414 9 -2 242 -49 516 -104z m-10705 -106
l355 -116 176 27 c96 16 184 29 194 29 17 1 24 -20 57 -159 21 -87 37 -160 36
-161 -1 0 -87 -20 -192 -44 -104 -23 -195 -45 -201 -49 -7 -3 -132 -118 -279
-256 -147 -137 -270 -249 -274 -248 -3 1 -25 73 -50 160 l-44 158 152 145
c116 112 151 151 151 170 0 24 -12 29 -197 95 l-197 70 -28 135 c-30 144 -32
160 -21 160 3 0 166 -52 362 -116z m10297 -1360 c195 -245 357 -451 360 -459
3 -8 -30 -81 -75 -163 l-80 -148 -148 13 c-81 6 -344 28 -583 48 -239 20 -436
37 -438 39 -2 3 35 71 81 153 l85 148 44 -1 c24 0 69 -2 102 -5 l59 -4 108
189 109 188 -71 89 -71 89 79 135 c42 74 79 135 80 135 2 0 163 -200 359 -446z
m-9198 156 l83 -161 -64 -112 c-98 -172 -92 -151 -67 -221 12 -33 24 -62 25
-64 3 -3 116 59 246 134 3 2 38 -63 78 -143 59 -119 70 -148 59 -158 -28 -26
-902 -505 -908 -498 -28 32 -302 543 -315 588 -12 40 -16 83 -13 148 5 114 28
168 108 248 127 128 287 159 440 86 l50 -24 34 61 c18 34 59 109 90 169 32 59
61 107 64 107 4 0 44 -72 90 -160z m8078 -1192 c38 -40 170 -179 294 -308 124
-129 256 -267 293 -306 l67 -71 -185 -182 c-324 -316 -401 -371 -529 -378 -66
-4 -75 -2 -126 29 -70 42 -105 104 -121 212 l-11 76 -83 0 c-137 0 -213 34
-261 115 -52 90 -38 206 42 334 22 34 134 153 287 304 138 136 254 247 258
247 3 0 37 -33 75 -72z m-7226 -128 c199 -66 363 -239 414 -437 21 -80 21
-229 0 -301 -69 -241 -285 -402 -539 -402 -447 0 -752 479 -554 872 72 143
231 259 399 292 56 11 216 -3 280 -24z m1374 -976 c78 -42 142 -78 144 -79 3
-2 -175 -376 -297 -624 -22 -46 -41 -88 -41 -92 0 -5 60 -39 133 -75 72 -36
134 -68 137 -71 7 -6 -113 -233 -123 -233 -10 0 -838 419 -850 430 -10 9 100
220 114 220 5 0 60 -23 122 -51 61 -28 121 -55 133 -59 19 -8 35 20 200 351
98 197 181 359 183 359 3 0 68 -34 145 -76z m4596 39 c127 -36 252 -127 321
-234 143 -224 106 -514 -90 -710 -121 -120 -244 -177 -406 -186 -177 -10 -319
42 -441 162 -112 110 -164 233 -164 390 0 162 54 289 175 411 167 167 388 229
605 167z"/>
<path d="M4738 11956 c-233 -64 -234 -398 -1 -512 127 -62 263 -21 329 98 57
107 28 257 -68 343 -75 68 -173 95 -260 71z"/>
<path d="M8934 11513 c-60 -53 -110 -100 -112 -104 -4 -8 187 -113 194 -106 4
4 33 299 29 304 -1 1 -50 -41 -111 -94z"/>
<path d="M3215 11101 c-109 -28 -185 -126 -185 -238 0 -110 78 -227 182 -274
67 -29 166 -32 220 -5 95 46 144 134 136 244 -8 108 -60 189 -156 240 -63 33
-144 47 -197 33z"/>
<path d="M10282 10680 l-93 -97 64 -59 c73 -69 119 -94 172 -94 32 0 46 8 86
49 45 44 49 52 49 96 0 47 -2 50 -82 127 -45 43 -86 77 -92 77 -6 -1 -53 -45
-104 -99z"/>
<path d="M6297 10970 c-27 -5 -59 -16 -72 -24 -26 -17 -61 -64 -53 -71 2 -2
44 0 94 5 49 5 137 12 196 15 93 6 107 9 111 26 4 16 -4 21 -46 33 -69 20
-171 27 -230 16z"/>
<path d="M6587 10923 c-14 -13 -6 -23 18 -23 28 0 34 15 9 24 -19 7 -19 7 -27
-1z"/>
<path d="M6410 10849 c-304 -18 -750 -98 -810 -144 -8 -6 -37 -20 -65 -30
-110 -40 -405 -169 -485 -212 -194 -104 -366 -235 -431 -329 -27 -40 -28 -44
-12 -53 10 -5 27 -11 38 -12 11 -2 22 -7 25 -10 3 -4 59 -32 126 -63 l121 -56
46 20 c25 11 74 26 109 33 53 11 64 16 66 35 5 35 -51 29 -121 -13 -70 -42
-107 -46 -107 -11 0 34 18 45 138 85 58 20 108 42 110 50 7 21 -48 7 -93 -24
-39 -26 -69 -32 -80 -16 -7 13 71 66 151 102 116 53 323 98 331 73 7 -22 -35
-44 -102 -53 -46 -7 -75 -17 -89 -30 l-20 -21 22 0 c13 0 74 20 136 45 155 61
209 58 177 -11 -14 -31 -46 -43 -135 -50 -75 -6 -133 -28 -150 -56 -21 -34 6
-40 65 -15 69 31 262 77 320 77 59 0 93 -19 97 -52 6 -52 -80 -81 -188 -65
-113 16 -173 11 -236 -19 -59 -29 -104 -78 -104 -114 0 -29 33 -58 73 -63 33
-5 43 -2 65 22 42 43 78 61 150 76 71 15 153 19 213 9 30 -5 36 -10 32 -25 -8
-31 15 -49 64 -49 24 0 53 5 64 10 27 15 64 -13 90 -70 28 -58 23 -164 -11
-229 -30 -59 -107 -139 -169 -176 -28 -16 -51 -33 -51 -36 0 -8 467 -359 478
-359 4 0 17 -11 29 -23 12 -13 69 -57 127 -98 207 -145 276 -196 271 -201 -6
-6 104 -15 304 -24 l144 -7 -5 61 c-3 41 -10 68 -23 82 -18 20 -18 25 5 223
69 608 13 1170 -148 1482 -66 127 -183 245 -301 304 -46 22 -93 40 -105 40
-11 -1 -77 -5 -146 -10z"/>
<path d="M6660 10856 c0 -3 24 -18 53 -35 90 -51 213 -193 275 -316 96 -194
156 -499 170 -866 7 -182 1 -305 -29 -641 -11 -134 -11 -149 4 -166 20 -22 41
-114 33 -145 -5 -22 -3 -23 185 -41 425 -40 1000 -156 1314 -267 184 -64 394
-131 429 -135 40 -6 46 -3 84 33 23 22 42 37 42 33 0 -3 -16 -21 -35 -40 -19
-19 -31 -38 -27 -42 4 -4 29 -1 54 8 l46 15 -13 52 c-8 29 -30 160 -50 292
-53 346 -120 671 -205 985 -91 336 -199 541 -374 715 -294 292 -772 466 -1481
540 -139 14 -475 29 -475 21z"/>
<path d="M3920 10161 c-56 -18 -160 -77 -160 -90 0 -4 -11 -13 -25 -19 -14 -6
-54 -34 -90 -63 -58 -45 -65 -55 -67 -87 l-1 -37 -4 33 -4 33 -32 -27 c-18
-14 -87 -75 -154 -136 -103 -92 -123 -115 -123 -138 0 -16 3 -31 8 -33 4 -3
39 22 77 55 39 33 104 85 145 116 41 30 80 60 85 66 6 6 16 12 23 14 7 1 30
13 51 26 69 44 217 114 276 131 54 16 67 16 209 0 173 -19 266 -40 418 -96
277 -102 595 -267 917 -477 79 -51 146 -91 148 -88 3 2 6 19 6 37 2 31 -5 37
-143 135 -80 56 -146 101 -148 99 -2 -2 -14 7 -27 19 -71 65 -624 372 -652
362 -7 -3 -13 -2 -13 3 0 24 -332 135 -493 166 -101 19 -159 18 -227 -4z"/>
<path d="M3910 9955 c-97 -30 -316 -157 -450 -260 -262 -202 -538 -540 -694
-853 -75 -148 -130 -303 -222 -622 -73 -252 -97 -355 -89 -381 3 -9 1 -20 -5
-24 -7 -4 -10 -58 -9 -151 1 -80 -1 -147 -4 -150 -2 -3 -8 38 -12 91 -4 52
-10 93 -14 90 -5 -2 -11 -66 -15 -142 -4 -76 -14 -181 -23 -234 -12 -74 -13
-101 -4 -115 11 -17 11 -17 10 6 -2 39 0 50 11 50 6 0 10 -17 10 -37 0 -32 8
-44 58 -92 56 -53 56 -58 -3 -16 -54 39 -61 38 -20 -3 l40 -40 220 -27 c121
-14 301 -38 400 -52 140 -21 220 -27 360 -27 99 -1 200 2 225 6 142 23 179 32
215 48 l41 18 17 113 c9 63 19 157 22 209 6 99 9 125 17 150 3 8 13 40 23 70
86 267 336 541 665 731 249 144 632 277 965 335 22 4 58 17 81 30 50 29 70 31
29 3 l-30 -20 30 5 c130 22 344 36 540 37 99 1 173 3 165 6 -44 16 -176 103
-348 228 -106 77 -200 145 -209 150 -10 6 -23 16 -31 23 -25 23 -243 175 -364
255 -401 263 -855 489 -1131 562 -90 24 -271 45 -372 44 -27 0 -70 -7 -95 -14z"/>
<path d="M5033 9930 c-24 -10 -43 -23 -43 -27 0 -4 34 -27 75 -51 81 -47 98
-47 125 2 26 49 -18 96 -88 96 -15 0 -46 -9 -69 -20z"/>
<path d="M5683 9918 c2 -7 10 -13 17 -13 7 0 15 6 18 13 2 7 -5 12 -18 12 -13
0 -20 -5 -17 -12z"/>
<path d="M5476 9905 c-21 -21 -20 -32 3 -44 24 -13 55 8 49 35 -4 25 -31 29
-52 9z"/>
<path d="M5641 9774 c-64 -17 -69 -20 -53 -36 19 -19 14 -47 -13 -73 -28 -29
-61 -32 -87 -8 -19 17 -20 16 -38 -7 -10 -13 -16 -28 -14 -32 2 -4 54 -41 114
-83 l110 -75 58 29 c99 50 171 150 172 237 0 41 -1 42 -44 53 -60 15 -139 13
-205 -5z m-81 -153 c0 -5 -6 -13 -13 -19 -15 -13 -42 1 -33 17 8 13 46 15 46
2z"/>
<path d="M3161 9554 c-73 -78 -186 -217 -216 -265 -5 -9 -28 -43 -51 -75 -50
-71 -159 -260 -181 -312 -8 -20 -26 -62 -40 -92 -102 -222 -215 -628 -238
-850 -5 -55 -5 -55 18 25 76 257 180 600 201 664 31 90 162 345 239 463 36 56
54 94 51 105 -4 13 -3 14 3 5 7 -10 26 9 72 72 34 47 101 129 149 183 81 91
87 101 82 132 l-5 35 -84 -90z"/>
<path d="M5633 9361 c-10 -29 -9 -31 41 -64 28 -19 163 -118 300 -220 138
-102 254 -184 258 -181 4 3 8 1 8 -5 0 -10 133 -103 222 -155 41 -24 165 -53
176 -41 2 2 -19 15 -47 30 -29 14 -76 41 -106 61 -54 34 -55 34 -82 17 l-28
-17 19 22 c11 12 17 24 15 25 -2 2 -34 25 -72 51 -51 36 -71 45 -80 37 -11 -8
-13 -6 -13 10 1 15 -31 44 -122 111 -122 90 -123 91 -145 72 -18 -16 -19 -16
-8 -2 18 24 11 38 -42 76 -40 28 -46 30 -50 15 -3 -13 -5 -10 -6 7 -1 19 -24
41 -99 97 -122 90 -125 91 -139 54z"/>
<path d="M6278 8654 c-2 -1 -51 -4 -108 -4 -58 -1 -166 -8 -240 -16 -74 -8
-139 -14 -145 -15 -10 0 46 -14 240 -60 131 -31 269 -76 350 -116 197 -96 231
-260 71 -346 -36 -19 -56 -22 -156 -21 -100 0 -135 5 -265 39 -185 47 -353 59
-451 30 -123 -36 -237 -113 -324 -219 -141 -171 -98 -190 231 -101 219 60 441
108 614 135 172 26 432 30 575 7 347 -55 573 -238 646 -522 26 -101 24 -316
-4 -451 -96 -455 -349 -812 -701 -988 -104 -53 -203 -76 -324 -76 l-101 0 95
-62 c114 -75 279 -237 332 -326 90 -153 117 -250 117 -418 1 -140 -28 -259
-99 -406 -32 -67 -70 -115 -221 -278 l-95 -103 63 32 c34 17 121 66 194 108
73 42 165 95 205 117 39 22 70 43 68 46 -2 4 28 22 67 41 40 19 91 50 113 69
23 19 89 73 146 120 137 111 215 185 251 238 35 51 32 61 -8 31 -28 -20 -28
-20 3 9 17 17 39 46 48 66 16 34 35 48 35 26 0 -5 4 -10 9 -10 12 0 49 97 62
164 6 28 26 112 44 186 48 187 72 337 85 530 7 91 16 177 20 192 7 23 3 37
-27 80 -47 69 -90 164 -148 323 -25 72 -63 164 -83 205 l-37 75 2 137 c1 101
-2 138 -10 138 -8 0 -7 3 2 9 9 6 14 36 16 92 2 46 6 147 9 224 3 77 8 165 11
195 3 30 7 107 10 170 8 202 25 436 35 507 5 37 9 82 9 98 -1 24 -3 20 -12
-18 -13 -55 -27 -53 -27 4 0 45 10 43 -265 63 -110 9 -249 20 -310 26 -105 10
-236 16 -497 24 -64 2 -119 2 -120 0z"/>
<path d="M5589 8585 c-199 -40 -384 -95 -573 -172 -136 -55 -168 -71 -161 -83
7 -12 -23 -132 -37 -145 -7 -7 -9 12 -6 58 4 67 4 68 -14 45 -12 -15 -16 -17
-12 -5 10 28 -13 20 -113 -40 -128 -76 -252 -173 -343 -269 -110 -115 -128
-143 -149 -225 -24 -93 -55 -397 -46 -449 14 -84 55 -67 94 39 11 32 36 75 54
96 34 39 34 39 60 22 19 -12 28 -29 34 -64 12 -71 5 -274 -12 -365 -10 -54
-12 -85 -5 -98 11 -21 37 -33 45 -21 2 5 20 16 40 25 34 16 36 16 94 -13 78
-40 134 -108 204 -246 30 -60 58 -120 62 -132 3 -13 11 -23 16 -23 6 0 8 -4 5
-8 -3 -5 2 -31 11 -59 l16 -51 47 24 c28 14 66 24 91 24 32 0 40 3 29 10 -8 5
-34 10 -57 10 -23 0 -44 4 -47 9 -4 5 6 23 20 40 20 24 24 35 15 45 -6 7 -9
21 -5 30 7 18 24 22 24 5 0 -7 8 -18 18 -25 16 -12 15 -15 -11 -42 l-28 -29
51 -5 c52 -5 92 -27 116 -63 13 -20 11 -20 -64 -21 -121 0 -184 -41 -202 -130
-6 -30 -14 -54 -17 -54 -3 0 -2 12 2 28 5 22 0 18 -24 -19 -17 -25 -40 -54
-51 -64 -24 -22 -27 -73 -4 -82 28 -10 49 12 55 59 5 30 17 55 39 79 17 19 40
50 50 69 11 19 19 28 20 19 0 -9 -11 -31 -25 -50 -69 -96 -78 -118 -67 -157 6
-20 25 -58 41 -84 25 -40 36 -48 60 -48 16 0 33 -4 36 -10 4 -6 -6 -10 -22
-10 -31 0 -50 -10 -112 -57 -37 -27 -46 -30 -66 -21 -18 8 -28 8 -40 -2 -19
-15 -73 -110 -78 -136 -2 -10 -11 -36 -20 -56 -9 -20 -27 -72 -39 -115 -20
-69 -23 -101 -23 -273 0 -246 4 -263 88 -330 63 -50 134 -92 175 -105 20 -6
22 -3 22 32 0 21 5 45 10 53 7 11 10 4 10 -26 0 -22 6 -49 14 -60 14 -19 17
-18 115 15 95 32 151 68 151 99 0 6 -21 35 -46 63 -49 55 -94 140 -93 174 0
11 12 -7 28 -40 15 -33 50 -85 78 -115 60 -66 64 -77 46 -113 l-14 -27 58 6
c93 9 98 11 170 76 105 95 115 103 214 163 188 113 404 149 523 88 84 -44 128
-103 130 -178 1 -22 5 -46 9 -52 5 -9 3 -11 -6 -7 -9 3 -18 -5 -26 -23 -41
-99 -120 -176 -314 -306 -211 -140 -303 -186 -497 -244 -111 -33 -203 -80
-213 -108 -6 -13 2 -55 9 -55 2 0 23 13 45 30 48 34 103 52 135 44 30 -8 38
-31 14 -44 -24 -13 -53 -13 -45 0 3 6 3 10 0 10 -15 0 -82 -40 -100 -60 -20
-22 -20 -22 0 -33 19 -10 19 -11 -5 -17 -22 -5 -25 -12 -28 -52 -3 -40 1 -51
28 -81 48 -55 105 -72 235 -71 174 1 291 39 465 147 52 33 106 63 119 68 13 6
74 43 136 84 114 76 226 182 312 295 117 155 195 404 179 575 -37 401 -349
688 -986 909 -191 67 -382 115 -357 90 7 -7 -15 -36 -63 -83 -41 -40 -143 -91
-182 -91 -31 0 -38 17 -10 27 9 3 40 16 69 29 l52 23 -16 31 c-11 23 -12 35
-4 43 8 8 11 5 11 -14 0 -13 5 -31 10 -39 8 -12 14 -10 40 15 38 37 39 68 1
94 -16 12 -33 21 -38 21 -4 0 -17 8 -28 16 -18 14 -16 15 35 9 30 -4 66 -15
80 -24 14 -9 61 -23 105 -30 143 -22 444 -118 601 -191 72 -33 200 -60 288
-60 198 1 409 103 596 290 197 196 334 459 390 745 24 129 27 335 5 440 -41
197 -182 362 -380 444 -173 73 -327 96 -585 88 -229 -6 -384 -32 -745 -123
-291 -73 -366 -87 -401 -74 -54 21 -14 111 97 220 150 148 306 211 490 197 42
-4 157 -25 255 -48 228 -54 331 -58 410 -17 54 28 81 60 90 107 20 100 -101
203 -322 270 -75 24 -497 125 -499 120 0 0 -52 -11 -116 -24z m-789 -514 c0
-6 -4 -13 -10 -16 -5 -3 -10 1 -10 9 0 9 5 16 10 16 6 0 10 -4 10 -9z m-34
-369 c1 -155 17 -274 61 -447 29 -119 106 -310 136 -343 l22 -24 -34 -28 c-36
-31 -71 -78 -71 -97 0 -6 20 -23 45 -37 46 -28 55 -43 31 -52 -32 -12 -106 47
-106 83 0 16 18 44 49 76 l49 51 -33 66 c-103 204 -177 567 -167 818 6 134 17
93 18 -66z m1681 -37 c192 -40 389 -151 498 -278 19 -22 35 -34 35 -26 0 8 12
-8 25 -36 13 -27 33 -57 43 -65 10 -9 19 -22 20 -30 14 -123 13 -138 -13 -240
-91 -348 -307 -642 -570 -778 -81 -42 -253 -69 -281 -43 -10 9 -104 42 -104
36 0 -16 15 -35 28 -35 13 0 13 -2 -3 -13 -23 -18 -14 -32 38 -59 34 -18 65
-23 162 -28 l120 -5 -105 -8 c-127 -9 -186 5 -271 64 -30 22 -75 43 -100 48
-43 9 -43 9 -9 10 l35 1 -37 25 c-52 35 -124 53 -146 37 -9 -7 -29 -18 -44
-25 -16 -6 -28 -18 -28 -26 0 -9 -17 2 -40 27 -31 32 -40 49 -40 76 0 33 -128
351 -147 365 -4 3 -9 22 -9 41 -1 19 -6 69 -12 111 -6 45 -6 97 -1 130 5 30
11 70 13 89 12 94 78 263 140 354 74 111 194 209 303 248 88 30 80 17 -23 -40
-52 -30 -93 -56 -91 -59 3 -2 55 23 117 58 61 34 134 68 163 75 72 17 252 17
334 -1z m-599 -1482 c-10 -2 -26 -2 -35 0 -10 3 -2 5 17 5 19 0 27 -2 18 -5z
m-690 -33 c26 -24 28 -52 6 -71 -13 -10 -20 -10 -44 4 -16 10 -40 15 -56 12
-16 -2 -46 -6 -66 -9 l-37 -5 19 32 c25 41 55 56 111 57 32 0 52 -6 67 -20z
m-204 -751 c4 -16 1 -14 -9 7 -16 37 -35 143 -34 194 0 19 9 -13 19 -71 10
-58 20 -116 24 -130z m1346 -318 c-1 -58 -17 -113 -41 -135 -21 -20 -22 -20
-14 -1 23 60 36 125 31 165 -5 41 -4 43 9 26 8 -11 15 -36 15 -55z"/>
<path d="M6115 7625 c-77 -14 -158 -44 -221 -80 -22 -13 -50 -23 -60 -23 -28
3 -77 -37 -127 -101 -64 -82 -92 -135 -128 -241 -27 -81 -33 -113 -37 -221 -5
-141 6 -170 33 -86 27 86 83 175 168 269 43 49 82 87 85 84 2 -3 -11 -23 -31
-45 -47 -52 -92 -120 -84 -127 3 -4 19 9 34 27 113 137 253 217 477 274 125
32 139 33 298 32 93 -1 168 -5 168 -9 0 -8 169 -48 206 -48 l28 0 -37 38 c-22
23 -55 43 -82 51 -25 7 -44 16 -41 18 3 3 20 0 38 -6 l33 -11 -40 35 c-164
140 -451 212 -680 170z"/>
<path d="M6333 7330 c-100 -14 -186 -39 -209 -61 -22 -21 -57 -91 -69 -139
l-6 -25 84 0 c69 0 89 -3 106 -19 38 -34 28 -76 -37 -158 -32 -40 -71 -81 -86
-91 l-27 -18 23 -41 c52 -94 196 -208 262 -208 12 0 27 -5 32 -10 25 -25 296
194 374 304 88 123 160 232 160 243 0 7 -10 13 -22 13 -19 1 -18 3 10 15 17 8
32 18 32 24 0 5 2 16 5 24 8 20 -153 93 -273 123 -108 27 -262 38 -359 24z
m510 -285 c21 -20 11 -50 -30 -85 -41 -36 -88 -41 -98 -10 -9 28 16 63 62 88
47 25 48 26 66 7z"/>
<path d="M6773 7008 c-22 -11 -38 -36 -28 -46 8 -8 50 17 63 39 14 22 2 25
-35 7z"/>
<path d="M6043 7248 c-6 -7 -15 -26 -22 -43 -11 -29 -11 -29 -6 -2 7 37 -9 35
-81 -11 -72 -47 -157 -132 -180 -181 -9 -19 -23 -41 -30 -49 -37 -37 -89 -289
-70 -339 7 -17 8 -17 23 2 l16 20 -8 -20 c-24 -61 -3 -155 49 -220 l23 -29 74
22 c40 11 75 20 76 18 2 -2 -24 -13 -57 -25 -63 -23 -74 -35 -40 -46 12 -4 31
1 48 14 43 30 123 59 267 96 148 38 185 50 185 64 0 6 -25 29 -56 52 -72 53
-124 107 -164 170 -32 48 -33 49 -69 42 -82 -17 -142 3 -162 54 -15 40 5 82
80 169 44 51 71 92 76 114 4 19 20 59 35 88 19 34 24 52 15 52 -7 0 -17 -6
-22 -12z"/>
<path d="M6991 7093 c-10 -26 -10 -27 4 -9 8 11 15 23 15 28 0 15 -7 8 -19
-19z"/>
<path d="M7017 7095 c-4 -11 -27 -56 -52 -99 -25 -44 -44 -80 -42 -82 1 -1 16
-4 32 -6 30 -3 30 -3 53 87 12 50 21 97 19 105 -2 11 -5 10 -10 -5z"/>
<path d="M6070 7072 c-86 -39 -190 -157 -190 -217 0 -53 96 -73 172 -34 51 26
139 117 170 176 l23 44 -24 20 c-17 14 -38 19 -80 18 -31 0 -63 -3 -71 -7z"/>
<path d="M6919 6988 c-60 -81 -71 -100 -45 -78 23 19 113 150 103 150 -3 0
-29 -33 -58 -72z"/>
<path d="M5662 6972 c-17 -39 -34 -83 -37 -99 -4 -23 -3 -21 9 7 7 20 26 59
40 89 15 29 26 57 24 63 -2 6 -18 -21 -36 -60z"/>
<path d="M6859 6843 c-145 -192 -359 -360 -513 -402 -48 -13 -60 -6 -20 10
109 44 200 96 272 154 104 84 284 285 256 285 -4 0 -58 -53 -120 -118 -175
-184 -293 -256 -549 -337 -83 -26 -151 -49 -153 -50 -8 -7 28 -63 43 -69 25
-9 126 -7 165 4 20 5 57 24 84 40 71 45 79 31 10 -18 -76 -54 -111 -70 -176
-80 l-53 -8 60 -24 c80 -32 178 -32 257 -1 182 71 370 257 480 476 46 90 79
180 71 189 -4 3 -21 6 -38 6 -28 0 -39 -8 -76 -57z"/>
<path d="M5611 6824 c0 -11 3 -14 6 -6 3 7 2 16 -1 19 -3 4 -6 -2 -5 -13z"/>
<path d="M5990 6370 c-13 -9 -13 -11 0 -20 10 -6 16 -6 18 0 7 20 -3 30 -18
20z"/>
<path d="M5723 6295 c-9 -27 -8 -35 2 -35 23 0 33 23 20 47 -11 22 -12 22 -22
-12z"/>
<path d="M6027 6207 c39 -36 63 -46 63 -28 0 20 -37 51 -69 58 l-35 6 41 -36z"/>
<path d="M7567 8537 c-7 -41 -20 -178 -32 -357 -3 -47 -8 -110 -10 -140 -2
-30 -9 -161 -14 -290 -6 -129 -16 -339 -22 -465 -7 -156 -7 -245 0 -275 5 -25
33 -101 62 -170 28 -69 56 -141 61 -160 14 -49 111 -245 150 -305 52 -79 79
-127 74 -133 -3 -2 -20 8 -38 23 l-32 27 -9 -26 c-11 -34 -1 -90 18 -106 8 -7
15 -17 15 -23 0 -5 -8 -3 -18 6 -10 10 -21 17 -24 17 -3 0 -8 -44 -12 -97 -9
-133 -31 -277 -62 -403 -14 -58 -27 -116 -29 -130 -3 -14 -12 -50 -20 -80 -29
-105 -15 -188 42 -251 20 -22 38 -37 41 -34 3 3 11 -4 19 -14 22 -32 119 -64
199 -64 64 -1 76 2 115 28 57 40 83 99 82 185 -2 92 -125 707 -169 840 -4 10
-12 6 -30 -18 -33 -42 -54 -42 -22 1 43 57 70 165 70 275 0 116 -19 218 -79
412 -43 141 -103 321 -109 329 -2 2 -10 -2 -19 -9 -26 -21 -17 -1 29 63 70 99
139 234 125 243 -9 5 -8 9 6 14 22 8 68 121 100 246 37 147 46 258 43 534 l-3
255 -90 17 c-49 9 -148 26 -220 38 -71 11 -142 23 -156 25 -24 4 -28 0 -32
-28z"/>
<path d="M8123 8203 c0 -232 -3 -284 -22 -387 -24 -136 -52 -235 -88 -316
l-24 -55 46 45 c26 25 55 62 66 83 22 42 33 49 19 11 -12 -30 -18 -33 108 65
50 39 85 73 88 88 4 16 9 21 14 13 8 -13 63 58 101 130 31 59 32 157 2 215
-21 41 -59 224 -51 247 3 7 13 -22 23 -64 10 -43 22 -78 26 -78 8 0 54 106 63
147 7 29 5 32 -25 38 -22 5 -34 3 -41 -6 -8 -11 -9 -10 -5 3 5 14 -17 22 -143
52 -82 20 -150 36 -153 36 -2 0 -4 -120 -4 -267z"/>
<path d="M10285 8330 c-300 -158 -596 -260 -972 -336 -65 -13 -93 -23 -93 -32
0 -11 -3 -12 -14 -3 -43 36 -678 -162 -662 -206 4 -11 1 -13 -15 -8 -35 11
-247 -124 -396 -253 -48 -41 -63 -60 -63 -80 0 -21 -2 -24 -10 -12 -8 12 -16
8 -51 -25 -49 -47 -139 -163 -139 -179 0 -6 -11 -27 -24 -47 -17 -24 -21 -40
-15 -51 16 -29 137 -442 154 -527 12 -57 16 -116 13 -191 -2 -71 0 -106 7
-102 5 3 23 15 40 26 23 16 42 20 85 18 119 -6 345 36 538 99 50 17 92 35 92
40 0 5 9 9 20 9 27 0 188 72 295 132 112 63 294 186 402 272 89 71 128 123
281 376 124 205 204 292 372 401 177 116 262 229 341 459 24 72 33 118 37 188
2 52 0 98 -5 103 -5 5 -25 -1 -48 -17 l-40 -25 35 30 c19 18 28 31 20 31 -8
-1 -91 -41 -185 -90z m21 -205 c9 -24 -22 -142 -51 -191 -42 -72 -148 -177
-253 -252 -54 -38 -104 -72 -112 -77 -31 -18 28 41 130 127 163 139 248 249
265 341 9 47 0 47 -99 2 -76 -34 -143 -48 -119 -24 21 21 177 88 206 89 15 0
30 -6 33 -15z m-456 -201 c-112 -61 -305 -131 -315 -114 -7 11 -6 12 120 54
61 20 137 50 170 66 85 40 103 36 25 -6z m-397 -135 c-5 -5 -41 -14 -78 -20
-254 -36 -542 -118 -710 -201 -63 -32 -199 -119 -249 -159 -135 -110 -264
-243 -326 -337 -39 -59 -38 -66 8 -58 20 4 69 9 109 13 67 5 73 4 97 -20 38
-38 33 -72 -25 -187 -49 -96 -51 -101 -35 -119 31 -34 116 -64 196 -69 62 -3
95 1 190 26 111 30 114 30 88 9 -15 -13 -60 -36 -100 -51 -132 -53 -300 -36
-392 37 l-30 24 -59 -64 c-62 -66 -74 -73 -83 -48 -4 9 15 34 48 67 94 92 202
306 166 329 -7 5 -60 9 -118 9 -109 0 -130 7 -130 42 0 43 113 183 255 318 49
47 92 88 95 91 3 3 41 31 85 61 213 148 435 233 745 287 170 30 271 38 253 20z
m81 -660 c-28 -31 -130 -102 -199 -138 -91 -47 -91 -37 0 14 44 25 109 68 145
95 72 55 82 60 54 29z"/>
<path d="M8535 8328 c-10 -44 -44 -127 -67 -160 -19 -27 -19 -31 -2 -97 25
-105 15 -190 -34 -283 -5 -10 91 44 99 55 3 5 8 7 10 5 3 -1 49 15 102 37 70
28 103 47 113 65 l15 25 -5 -24 c-4 -20 -3 -22 8 -10 23 26 66 137 68 176 2
51 -10 145 -19 154 -8 7 -259 89 -274 89 -4 0 -11 -15 -14 -32z"/>
<path d="M8865 8242 c28 -73 24 -177 -10 -243 -9 -17 -14 -33 -12 -35 6 -7
179 33 186 43 3 4 30 9 59 10 28 1 61 7 71 13 19 9 19 11 1 57 -17 45 -21 49
-66 60 -32 7 -40 12 -24 12 l25 2 -28 15 c-16 8 -34 13 -40 11 -7 -2 -19 1
-27 8 -8 7 -44 25 -78 39 -55 22 -63 23 -57 8z"/>
<path d="M2421 7884 c0 -11 3 -14 6 -6 3 7 2 16 -1 19 -3 4 -6 -2 -5 -13z"/>
<path d="M4124 7694 c-4 -16 -10 -31 -14 -34 -13 -10 -50 -117 -61 -175 -9
-49 -8 -70 7 -123 12 -45 19 -60 25 -50 5 9 0 35 -11 67 -11 28 -20 59 -19 69
0 9 7 -4 15 -30 16 -52 30 -67 38 -41 2 10 8 72 11 138 4 66 11 137 16 159 6
21 8 40 5 43 -3 3 -8 -8 -12 -23z"/>
<path d="M4298 7422 c-14 -17 -34 -54 -44 -83 -11 -29 -33 -68 -51 -87 -27
-29 -35 -32 -53 -22 -25 13 -43 53 -42 95 0 24 -2 22 -11 -13 -10 -41 -8 -48
37 -135 51 -101 141 -221 157 -211 6 3 8 13 4 21 -4 13 -3 14 10 3 9 -7 17
-11 19 -9 9 13 29 160 33 255 6 119 1 170 -20 198 -12 17 -15 16 -39 -12z"/>
<path d="M4012 7252 c-17 -66 -42 -256 -42 -323 0 -30 -5 -60 -11 -66 -18 -18
-23 -204 -10 -302 7 -47 22 -114 33 -149 29 -90 15 -88 -18 2 -16 42 -31 76
-35 76 -3 0 -9 -23 -12 -50 -3 -28 -33 -130 -67 -228 -86 -254 -123 -438 -101
-517 23 -86 89 -134 193 -141 35 -2 39 1 77 60 66 102 70 124 49 275 -9 68
-14 81 -23 67 -7 -8 -14 -13 -17 -10 -5 5 42 103 62 129 55 73 159 369 146
419 -3 11 -6 79 -7 150 -2 217 -16 344 -42 380 -24 33 -57 93 -112 198 -19 36
-38 69 -43 72 -5 3 -14 -16 -20 -42z"/>
<path d="M4300 6951 c0 -6 5 -13 10 -16 6 -3 10 1 10 9 0 9 -4 16 -10 16 -5 0
-10 -4 -10 -9z"/>
<path d="M4261 6883 c4 -26 8 -97 8 -156 1 -82 4 -108 14 -104 9 3 11 32 9
108 -4 130 -9 170 -26 187 -11 11 -12 5 -5 -35z"/>
<path d="M4436 6909 c-19 -15 -26 -30 -26 -54 0 -33 13 -45 49 -45 9 0 38 -13
63 -29 35 -22 45 -34 42 -49 -4 -13 5 -27 30 -46 20 -15 41 -24 46 -21 5 3 7
0 5 -7 -7 -17 100 -124 109 -110 13 21 -85 235 -135 296 -29 34 -115 86 -145
86 -6 0 -23 -9 -38 -21z"/>
<path d="M4340 6896 c0 -21 16 -28 29 -12 9 11 8 15 -5 20 -22 8 -24 8 -24 -8z"/>
<path d="M4380 6840 c-6 -11 -7 -20 -2 -20 6 0 12 9 15 20 3 11 3 20 1 20 -2
0 -8 -9 -14 -20z"/>
<path d="M3214 6815 c-14 -36 4 -136 39 -208 64 -134 158 -236 305 -331 90
-59 230 -122 241 -110 5 5 25 56 45 114 32 95 43 148 61 279 l6 44 -63 -7
c-131 -14 -225 -17 -268 -8 -41 9 -37 10 50 11 110 2 275 31 274 49 -1 7 -2
41 -2 76 l-2 64 -62 -15 c-35 -9 -88 -23 -118 -31 -63 -17 -78 -20 -180 -31
-44 -4 -90 -4 -110 2 -44 12 -109 44 -135 67 -11 9 -32 25 -47 35 -26 16 -28
16 -34 0z m249 -192 c-7 -2 -21 -2 -30 0 -10 3 -4 5 12 5 17 0 24 -2 18 -5z"/>
<path d="M4415 6780 c-16 -7 -17 -9 -3 -9 9 -1 24 -4 34 -8 11 -4 15 -2 12 7
-6 18 -18 21 -43 10z"/>
<path d="M4470 6772 c0 -5 18 -18 40 -31 34 -19 40 -20 40 -6 0 9 -15 22 -35
31 -40 16 -45 17 -45 6z"/>
<path d="M9357 6719 c-9 -6 -18 -22 -18 -37 -1 -17 -3 -20 -6 -9 -2 9 -7 17
-10 17 -4 0 -49 -27 -100 -61 -52 -34 -132 -81 -179 -106 -65 -34 -84 -50 -85
-66 -6 -186 43 -480 118 -707 39 -120 130 -309 171 -358 29 -35 62 -36 62 -3
1 14 2 14 11 -1 12 -21 79 -25 80 -5 0 6 4 2 9 -10 5 -13 14 -23 20 -23 21 0
68 92 79 153 22 130 -34 333 -131 474 -32 47 -46 97 -29 107 6 4 11 0 11 -11
1 -41 18 15 35 112 20 118 22 326 5 440 -15 97 -19 107 -43 94z"/>
<path d="M4420 6673 c-17 -26 -30 -52 -30 -57 0 -6 -3 -21 -6 -33 -4 -14 -2
-23 4 -23 15 0 82 59 82 73 0 5 11 25 25 43 21 27 22 33 9 38 -37 14 -55 5
-84 -41z"/>
<path d="M4370 6688 c-15 -17 -20 -35 -20 -80 0 -32 4 -58 10 -58 6 0 10 12
10 28 1 24 12 60 35 115 10 24 -10 22 -35 -5z"/>
<path d="M4522 6658 c-19 -19 -14 -28 14 -28 14 0 34 -5 46 -11 28 -15 36 -2
12 20 -26 25 -57 34 -72 19z"/>
<path d="M4268 6508 c-2 -272 10 -440 41 -541 5 -18 17 -59 26 -92 17 -62 141
-324 170 -360 15 -19 16 -16 12 43 -2 34 0 57 4 50 4 -7 10 -10 12 -8 8 11 28
92 23 97 -3 3 1 12 9 20 21 21 18 45 -10 84 -42 59 -91 143 -104 179 -7 19
-16 96 -20 170 -6 123 -22 193 -39 175 -4 -3 -6 -23 -5 -43 2 -40 4 -46 -47
158 -12 47 -24 103 -28 125 -5 27 -13 41 -25 43 -16 3 -18 -6 -19 -100z"/>
<path d="M4620 6598 c0 -18 18 -34 28 -24 3 4 -2 14 -11 23 -16 16 -17 16 -17
1z"/>
<path d="M4508 6593 c6 -2 18 -2 25 0 6 3 1 5 -13 5 -14 0 -19 -2 -12 -5z"/>
<path d="M4470 6577 c0 -1 -4 -17 -9 -35 -9 -30 -7 -33 19 -47 35 -18 82 -19
98 -3 7 7 12 24 12 38 0 38 -18 50 -72 50 -26 0 -48 -1 -48 -3z"/>
<path d="M4437 6552 c-11 -11 -13 -22 -7 -32 7 -12 10 -11 15 5 18 52 17 55
-8 27z"/>
<path d="M4389 6543 c-5 -24 -3 -81 2 -77 3 2 11 -14 17 -35 7 -21 21 -46 32
-56 21 -19 21 -19 11 9 -6 15 -11 43 -11 62 0 21 -6 37 -15 40 -14 6 -31 41
-27 57 1 4 0 7 -3 7 -3 0 -6 -3 -6 -7z"/>
<path d="M4640 6531 c0 -11 -11 -33 -24 -48 -21 -25 -31 -28 -81 -27 l-56 0 6
-34 c11 -62 25 -79 73 -94 26 -9 46 -22 48 -31 1 -8 10 -27 21 -41 13 -20 26
-25 48 -24 28 3 30 5 28 43 l-3 40 13 -34 13 -34 23 31 22 32 -23 1 c-20 0
-20 2 7 11 33 12 45 25 45 48 0 16 -103 159 -123 172 -21 14 -37 8 -37 -11z"/>
<path d="M8755 6389 c-75 -31 -238 -76 -345 -95 -52 -10 -96 -18 -97 -19 -1 0
5 -51 13 -113 13 -105 75 -366 106 -456 l14 -38 28 33 c63 74 187 202 177 181
-7 -12 -54 -73 -106 -135 -155 -184 -189 -270 -183 -463 3 -103 5 -115 27
-138 35 -37 117 -75 174 -80 l48 -5 50 77 c117 183 191 502 192 827 0 163 -17
367 -32 373 -4 1 -5 18 -3 37 5 40 4 41 -63 14z"/>
<path d="M4376 6355 c4 -8 8 -15 10 -15 2 0 4 7 4 15 0 8 -4 15 -10 15 -5 0
-7 -7 -4 -15z"/>
<path d="M4540 6314 c0 -1 13 -12 29 -23 28 -20 29 -20 24 -2 -3 10 -16 21
-29 24 -13 2 -24 3 -24 1z"/>
<path d="M8100 6263 c-8 -3 -36 -19 -62 -35 -38 -24 -48 -36 -48 -57 0 -15 23
-139 50 -277 113 -560 120 -628 75 -719 -27 -56 -83 -111 -122 -121 -13 -4
-23 -11 -23 -16 0 -6 14 -57 31 -114 27 -92 29 -106 17 -131 -23 -50 -78 -68
-203 -68 -103 0 -113 2 -164 30 -29 16 -65 45 -80 64 -22 29 -26 44 -26 102 0
52 -3 65 -11 56 -9 -9 -8 -63 2 -217 15 -231 18 -264 41 -372 15 -75 16 -76
40 -67 34 13 180 11 206 -2 12 -6 63 -51 112 -100 l90 -88 40 9 c22 5 63 10
91 10 l52 0 21 78 c22 81 20 102 -11 169 -23 50 -18 89 36 260 59 189 96 440
76 520 -26 108 -3 285 53 393 l34 65 -39 125 c-54 171 -87 318 -95 423 l-6 87
-81 -1 c-45 0 -88 -3 -96 -6z"/>
<path d="M4210 6219 c-8 -22 -31 -70 -52 -106 -21 -36 -38 -67 -38 -68 0 -5
62 -25 75 -25 16 0 26 61 13 77 -5 6 -5 13 0 15 8 3 25 148 18 148 -2 0 -9
-18 -16 -41z"/>
<path d="M4471 6137 c5 -95 32 -137 88 -137 72 0 93 63 31 95 -38 20 -40 19
-41 -12 -1 -23 -3 -21 -10 12 -9 36 -54 115 -66 115 -3 0 -4 -33 -2 -73z m86
-119 c-3 -8 -6 -5 -6 6 -1 11 2 17 5 13 3 -3 4 -12 1 -19z"/>
<path d="M4232 6130 c0 -19 2 -27 5 -17 2 9 2 25 0 35 -3 9 -5 1 -5 -18z"/>
<path d="M4226 6074 c-14 -36 -6 -72 16 -77 12 -4 23 -5 24 -4 1 1 -3 23 -9
50 -11 49 -20 58 -31 31z"/>
<path d="M4797 6083 c-5 -7 -3 -21 3 -32 5 -11 10 -29 10 -40 0 -18 -3 -19
-24 -11 -20 7 -25 6 -28 -8 -6 -24 12 -62 29 -62 8 0 25 7 38 16 23 15 24 17
10 45 -9 15 -19 45 -23 66 -5 23 -11 33 -15 26z"/>
<path d="M4820 6063 c0 -21 31 -93 41 -93 5 0 9 3 9 8 -1 14 -49 97 -50 85z"/>
<path d="M4494 5984 c7 -29 88 -158 106 -169 5 -3 12 6 16 20 4 18 1 32 -12
46 -17 18 -17 22 -3 29 46 26 60 46 54 72 l-7 27 -31 -20 c-42 -25 -68 -24
-102 3 l-28 22 7 -30z"/>
<path d="M4164 5916 c4 -62 9 -82 31 -110 18 -24 31 -58 39 -108 7 -41 18 -83
24 -94 6 -12 16 -59 22 -105 20 -162 126 -484 159 -484 9 0 24 28 39 75 19 61
25 103 29 222 4 142 4 147 -20 186 -43 67 -129 243 -172 351 -44 112 -38 105
-133 135 -23 8 -23 7 -18 -68z"/>
<path d="M4645 5923 c-38 -20 -36 -18 -29 -37 9 -23 17 -20 43 15 28 37 25 42
-14 22z"/>
<path d="M3831 5544 c-11 -13 -10 -17 5 -29 27 -19 75 -27 123 -19 47 8 65 24
26 24 -14 0 -51 9 -82 20 -32 11 -57 20 -58 20 0 -1 -6 -8 -14 -16z"/>
<path d="M3816 5457 c-3 -17 -2 -35 3 -40 15 -15 38 -1 43 26 4 19 -1 28 -17
35 -21 10 -23 7 -29 -21z"/>
<path d="M3928 5463 c-41 -3 -58 -8 -58 -18 0 -7 -3 -20 -6 -29 -5 -13 2 -16
39 -16 42 0 46 2 50 28 l4 27 2 -29 c1 -26 4 -28 28 -21 34 8 32 5 26 38 -3
15 -10 26 -17 25 -6 -1 -37 -3 -68 -5z"/>
<path d="M3814 5385 c11 -8 24 -15 30 -15 5 0 1 7 -10 15 -10 8 -23 14 -29 14
-5 0 -1 -6 9 -14z"/>
<path d="M3997 5383 c-4 -3 -37 -9 -75 -13 -58 -5 -63 -7 -38 -15 19 -5 47 -4
75 4 44 12 78 31 55 31 -6 0 -14 -3 -17 -7z"/>
<path d="M3808 5308 c1 -29 7 -102 13 -163 6 -60 13 -132 15 -160 2 -27 7 -63
10 -80 3 -16 7 -48 11 -70 12 -90 70 -151 172 -185 l42 -14 44 45 c57 56 69
111 54 231 -13 107 -39 183 -100 293 -72 130 -70 128 -113 117 -40 -11 -100 0
-127 24 -23 21 -24 19 -21 -38z"/>
<path d="M9291 5301 c-13 -13 -21 -16 -24 -8 -6 18 -47 -22 -64 -62 -9 -20
-12 -45 -7 -65 7 -34 40 -76 61 -76 7 0 13 -4 13 -9 0 -16 54 -20 77 -5 52 33
76 121 52 191 -17 51 -73 69 -108 34z"/>
<path d="M5874 5229 c-70 -12 -186 -54 -264 -97 -81 -44 -247 -161 -289 -203
-30 -29 -36 -31 -119 -33 -77 -2 -96 -7 -163 -39 -42 -20 -94 -39 -115 -43
-57 -9 -150 26 -229 86 -36 27 -75 50 -85 50 -11 0 -34 9 -52 20 -44 26 -54
25 -89 -9 -25 -25 -29 -37 -29 -83 0 -54 22 -114 57 -155 26 -30 111 -82 156
-94 81 -22 105 -20 148 8 34 22 55 27 123 31 46 2 106 -1 135 -7 49 -10 53
-10 93 19 40 30 78 39 78 20 0 -5 -15 -17 -32 -26 -18 -9 -47 -27 -65 -40 -27
-20 -32 -21 -37 -8 -5 13 -23 15 -114 12 -100 -3 -112 -5 -157 -33 -70 -44
-73 -52 -47 -133 24 -75 81 -151 133 -177 39 -21 96 -18 149 6 35 16 41 22 30
29 -12 8 -9 10 11 10 15 0 32 7 40 16 32 39 107 77 235 119 167 56 313 130
459 235 61 43 133 95 160 114 28 19 61 46 74 59 l22 25 -20 38 c-36 68 -34 67
-72 45 -53 -31 -113 -50 -244 -76 -165 -33 -325 -96 -412 -163 -48 -36 -40
-10 8 32 81 69 308 159 458 180 25 4 71 21 104 38 84 45 112 96 54 99 -17 1
-13 4 15 16 34 14 37 18 32 47 l-5 31 15 -32 c10 -21 22 -33 35 -33 11 0 26
-9 33 -19 7 -10 24 -21 37 -22 20 -3 26 2 32 26 7 23 4 34 -13 52 -50 54 -166
80 -274 62z m-624 -354 c-7 -8 -17 -15 -22 -15 -6 0 -5 7 2 15 7 8 17 15 22
15 6 0 5 -7 -2 -15z"/>
<path d="M7587 5226 c-4 -10 -1 -26 7 -37 13 -20 13 -20 19 0 3 11 -1 28 -7
37 -12 16 -13 16 -19 0z"/>
<path d="M7670 5146 c0 -2 8 -10 18 -17 15 -13 16 -12 3 4 -13 16 -21 21 -21
13z"/>
<path d="M4551 5093 c-1 -12 -4 -28 -7 -36 -3 -9 2 -16 15 -20 17 -4 18 -1 11
22 -17 54 -18 56 -19 34z"/>
<path d="M7616 5022 c-14 -48 -26 -108 -26 -134 0 -42 4 -50 40 -81 51 -43
103 -59 199 -58 110 1 170 22 171 60 1 9 -14 62 -32 117 l-33 101 -55 -4 c-39
-4 -71 1 -112 15 -52 18 -57 19 -61 4 -3 -12 -5 -11 -6 5 0 12 -14 31 -30 42
l-28 20 -27 -87z"/>
<path d="M8370 5102 c0 -11 36 -59 68 -90 29 -28 80 -54 95 -49 11 3 37 -15
37 -27 0 -30 -138 45 -175 95 -29 39 -30 40 -36 17 -4 -13 -7 -42 -8 -66 -1
-42 0 -43 45 -62 45 -20 138 -27 160 -12 20 13 67 121 47 109 -21 -13 -144 31
-205 75 -16 11 -28 15 -28 10z"/>
<path d="M7765 5079 c22 -10 47 -18 55 -18 8 0 -7 9 -35 19 -63 25 -73 24 -20
-1z"/>
<path d="M6073 5045 l-23 -22 30 -54 29 -54 16 40 c9 21 19 53 22 70 4 27 2
33 -18 38 -31 9 -30 9 -56 -18z"/>
<path d="M9266 4978 c-9 -90 -7 -176 4 -183 6 -3 10 -24 10 -46 0 -41 13 -76
35 -94 7 -5 15 -21 18 -35 8 -33 74 -100 98 -100 11 0 19 -4 19 -10 0 -17 -36
-11 -63 10 -14 11 -36 37 -49 58 -12 20 -31 44 -42 53 -20 16 -21 15 -38 -71
-10 -48 -34 -141 -53 -206 -95 -320 -126 -474 -106 -526 20 -52 97 -84 228
-97 108 -10 210 2 271 33 41 21 64 26 109 24 l57 -3 12 43 c12 40 11 45 -12
79 -13 20 -27 48 -30 62 -4 14 -26 60 -49 101 -24 41 -74 137 -111 213 -38 75
-74 137 -81 137 -18 0 -17 65 2 126 17 58 19 156 4 240 -9 51 -91 238 -109
249 -4 2 -23 0 -43 -6 -25 -7 -43 -7 -55 0 -18 9 -20 5 -26 -51z"/>
<path d="M7365 4973 c-100 -53 -281 -211 -307 -268 -6 -14 -15 -25 -19 -25 -5
0 -18 -18 -29 -40 -18 -36 -19 -45 -9 -80 11 -36 10 -46 -12 -92 -34 -73 -33
-163 4 -242 15 -32 27 -67 27 -78 0 -10 -21 -42 -47 -70 -45 -47 -48 -53 -45
-97 3 -40 -2 -54 -36 -106 -72 -108 -210 -229 -290 -256 -23 -7 -45 -29 -73
-70 -22 -33 -63 -78 -92 -101 -29 -22 -50 -46 -48 -52 2 -6 3 -33 2 -60 -1
-42 1 -47 14 -36 13 11 14 10 9 -4 -6 -15 30 -61 48 -61 3 0 10 -4 15 -9 5 -6
2 -6 -6 -1 -11 6 -13 4 -8 -9 4 -10 7 -19 7 -20 0 -1 24 2 53 7 82 15 123 -1
204 -81 l69 -67 45 23 c42 21 107 30 234 32 24 1 35 9 56 44 39 63 141 112
264 126 214 24 301 10 373 -58 43 -40 63 -31 81 36 7 28 26 71 42 97 16 25 29
49 29 53 0 16 87 92 122 107 42 17 150 20 179 5 15 -9 19 -7 19 7 0 11 -15 26
-34 37 -60 32 -111 124 -131 236 -6 29 -16 41 -63 69 -155 94 -287 189 -333
240 -99 111 -136 229 -164 527 -17 183 -28 257 -46 299 l-12 30 -7 -30 c-4
-17 -8 -22 -9 -11 -1 12 -6 16 -17 12 -13 -5 -14 -1 -9 24 8 35 -4 38 -50 13z"/>
<path d="M8346 4898 c-2 -7 -9 -43 -15 -80 -6 -37 -29 -125 -51 -195 -38 -121
-49 -194 -32 -219 13 -20 84 -64 104 -64 11 0 16 -4 13 -10 -3 -5 -15 -10 -26
-10 -30 0 -20 -34 11 -38 34 -5 94 14 115 38 18 20 18 20 -16 9 -19 -7 -40
-17 -48 -23 -11 -8 -13 -8 -9 4 2 8 24 28 49 46 43 30 44 32 43 85 0 73 -30
169 -51 169 -10 0 2 15 30 40 58 51 89 114 85 172 -3 43 -3 43 -43 44 -52 0
-104 12 -133 30 -18 12 -23 12 -26 2z"/>
<path d="M4104 4630 c-76 -31 -89 -170 -15 -170 32 0 67 32 55 51 -4 8 -3 10
4 5 27 -17 35 79 9 112 -11 14 -23 14 -53 2z m36 -90 c0 -5 -4 -10 -10 -10 -5
0 -10 5 -10 10 0 6 5 10 10 10 6 0 10 -4 10 -10z"/>
<path d="M4180 4472 c0 -12 -56 -42 -78 -42 -18 0 -24 -15 -46 -110 -35 -147
-36 -140 24 -133 43 5 50 3 56 -13 6 -19 23 -59 44 -105 17 -38 60 -59 122
-59 73 0 147 38 221 114 49 49 56 61 43 68 -14 8 -14 12 -1 38 20 39 19 104
-1 121 -9 7 -37 14 -63 14 -30 0 -51 6 -61 17 -8 9 -48 28 -88 42 -40 14 -86
33 -102 41 -31 16 -70 20 -70 7z"/>
<path d="M8280 4331 c0 -5 7 -14 15 -21 12 -10 15 -10 15 3 0 8 -7 17 -15 21
-8 3 -15 2 -15 -3z"/>
<path d="M4816 4238 c25 -112 93 -313 117 -349 12 -19 33 -35 46 -37 15 -2 21
0 17 7 -9 14 0 14 22 0 24 -15 87 11 91 37 1 10 5 74 7 142 5 120 5 122 -18
131 l-23 10 24 0 c18 1 22 5 16 19 -3 9 -9 29 -12 43 -5 27 -5 27 -34 10 -19
-11 -29 -24 -30 -41 0 -22 -1 -23 -8 -5 -6 16 -16 19 -52 16 -24 -1 -57 2 -72
8 -23 9 -27 8 -27 -7 -1 -10 -6 -5 -14 13 -12 26 -48 65 -60 65 -2 0 2 -28 10
-62z"/>
<path d="M7657 4281 c-20 -4 -40 -11 -43 -14 -12 -11 52 -112 106 -167 47 -48
227 -180 246 -180 3 0 4 27 2 60 -1 33 0 60 5 60 4 0 7 16 7 35 0 29 -11 46
-82 119 l-83 85 -60 5 c-33 2 -77 1 -98 -3z"/>
<path d="M6799 4255 c-76 -20 -123 -53 -171 -123 -16 -23 -27 -46 -23 -51 3
-5 0 -11 -5 -13 -15 -5 -30 -77 -19 -84 5 -3 9 -1 9 3 0 5 7 18 15 29 14 18
14 17 4 -11 -8 -24 -7 -32 7 -42 19 -14 15 -16 105 46 91 64 100 68 155 77 52
7 104 47 104 79 0 27 -42 95 -59 97 -46 5 -83 3 -122 -7z"/>
<path d="M8280 4250 c0 -38 -56 -192 -100 -272 -46 -86 -52 -127 -24 -165 55
-73 171 -82 319 -24 124 48 134 59 141 161 6 80 4 88 -22 138 -43 78 -136 183
-151 170 -17 -14 -130 -13 -148 2 -12 10 -15 9 -15 -10z"/>
<path d="M6474 4110 c-33 -11 -77 -34 -98 -53 l-39 -33 69 -27 c50 -19 77 -25
97 -19 27 7 27 8 -19 20 -26 7 -45 15 -42 17 2 3 18 1 34 -4 40 -11 54 -4 54
27 1 15 7 38 15 52 27 47 21 49 -71 20z"/>
<path d="M8169 4093 c0 -11 -3 -13 -6 -5 -6 15 -59 16 -102 1 -27 -9 -31 -16
-31 -46 0 -19 3 -32 8 -30 4 3 32 10 63 16 49 10 58 16 72 46 9 19 12 35 7 35
-6 0 -10 -8 -11 -17z"/>
<path d="M6750 3980 c-103 -62 -116 -73 -146 -130 -13 -25 -28 -52 -33 -60
-22 -38 -54 -121 -48 -126 13 -14 79 9 114 39 20 18 33 25 28 17 -8 -13 -6
-13 11 -1 48 35 172 174 189 211 17 39 18 43 3 68 -9 15 -20 28 -25 29 -4 2
-46 -20 -93 -47z"/>
<path d="M8087 4015 c-27 -7 -51 -16 -54 -19 -3 -3 -8 -28 -11 -56 l-5 -50 34
0 c32 0 36 5 64 62 38 78 38 78 28 77 -4 0 -30 -7 -56 -14z"/>
<path d="M6302 3973 c-20 -8 -97 -122 -140 -208 -81 -164 -118 -306 -92 -355
12 -23 13 -23 27 -4 14 18 14 18 11 -6 -3 -22 1 -25 33 -28 28 -2 48 6 96 38
71 47 207 197 223 246 7 19 16 34 21 34 5 0 9 6 9 13 0 6 7 26 16 42 19 36 13
115 -11 152 -9 14 -44 38 -78 54 -60 28 -87 33 -115 22z"/>
<path d="M6520 3933 c0 -5 7 -17 15 -27 8 -11 15 -29 15 -39 0 -16 3 -17 15
-7 21 17 19 29 -11 56 -26 25 -34 29 -34 17z"/>
<path d="M8631 3875 c-10 -27 -28 -44 -84 -77 l-71 -43 40 -6 c69 -12 90 -26
126 -81 46 -69 69 -124 71 -170 1 -21 5 -38 9 -38 14 0 86 41 99 56 20 24 -3
153 -43 237 -30 61 -108 157 -128 157 -3 0 -12 -16 -19 -35z"/>
<path d="M5140 3865 c-18 -19 -20 -25 -8 -25 19 0 52 36 40 44 -5 3 -20 -6
-32 -19z"/>
<path d="M5058 3809 c-21 -11 -38 -24 -38 -29 0 -6 18 -1 40 10 22 11 40 25
40 30 0 12 2 13 -42 -11z"/>
<path d="M4971 3791 c-15 -27 -14 -31 9 -31 13 0 20 7 20 19 0 28 -17 35 -29
12z"/>
<path d="M5140 3763 c-1 -23 -2 -25 -10 -11 -9 15 -14 15 -60 -5 -27 -12 -50
-29 -51 -37 0 -10 -2 -11 -6 -2 -2 6 -12 12 -20 12 -10 0 -13 -6 -9 -17 5 -11
0 -23 -13 -33 -28 -20 -43 -106 -45 -250 -1 -94 2 -119 16 -139 16 -22 16 -26
1 -55 -34 -65 -2 -189 60 -242 25 -21 38 -25 67 -20 25 4 43 1 59 -10 22 -16
24 -15 72 36 60 65 130 201 136 267 4 41 -6 76 -70 248 -100 265 -108 285
-118 285 -5 0 -9 -12 -9 -27z"/>
<path d="M8130 3775 c0 -8 7 -31 14 -50 14 -33 17 -34 40 -23 15 6 26 14 26
17 0 3 -18 21 -40 39 -29 24 -40 29 -40 17z"/>
<path d="M8206 3705 c-10 -8 -24 -16 -30 -18 -19 -6 16 -58 50 -74 31 -15 31
-15 77 33 25 27 43 52 39 55 -4 4 -32 9 -62 13 -40 4 -60 2 -74 -9z"/>
<path d="M8420 3674 c-42 -19 -51 -27 -40 -34 11 -7 9 -10 -12 -10 -36 0 -60
-36 -94 -140 -46 -141 -36 -340 19 -374 65 -41 377 268 377 374 0 34 -41 131
-73 171 -35 45 -97 50 -177 13z"/>
<path d="M5952 3626 c-145 -54 -202 -126 -202 -257 0 -122 61 -234 153 -278
68 -32 97 -42 97 -31 0 32 -37 139 -56 162 -35 43 -47 90 -34 137 11 42 55 87
94 97 19 4 24 16 33 72 6 37 15 79 18 95 7 24 5 27 -16 26 -13 0 -52 -11 -87
-23z"/>
<path d="M6485 3611 c-3 -11 -30 -47 -60 -81 -51 -56 -68 -90 -46 -90 15 0
118 104 134 136 14 28 14 31 -3 42 -16 9 -20 8 -25 -7z"/>
<path d="M8054 3466 c-16 -7 -47 -33 -68 -57 -37 -44 -103 -165 -94 -174 2 -2
31 0 64 5 38 6 72 6 93 0 37 -10 51 -6 51 16 0 8 5 14 10 14 6 0 10 -3 10 -8
0 -4 18 -6 40 -4 l40 4 0 48 c0 26 5 71 10 100 6 29 9 55 7 56 -1 2 -32 6 -67
9 -45 4 -74 1 -96 -9z"/>
<path d="M6285 3392 c-58 -45 -106 -72 -132 -72 -13 0 -10 -5 12 -20 17 -11
38 -20 48 -20 9 0 17 -4 17 -10 0 -5 19 -19 42 -31 40 -21 42 -21 55 -3 13 18
11 19 -34 25 l-48 6 41 1 c53 2 64 16 63 77 -1 88 -7 92 -64 47z"/>
<path d="M5988 3404 c-38 -20 -56 -81 -37 -125 l13 -33 12 30 c7 16 22 38 33
48 18 16 27 18 55 9 l34 -11 -34 35 c-19 18 -34 40 -34 48 0 18 -7 18 -42 -1z"/>
<path d="M6019 3278 c-7 -13 -9 -49 -7 -90 5 -58 14 -87 60 -181 86 -174 152
-231 263 -224 105 6 141 46 132 143 -6 62 -54 158 -99 200 -42 39 -166 110
-221 126 -23 6 -45 16 -48 20 -3 5 -20 12 -37 17 -28 8 -34 7 -43 -11z"/>
<path d="M6362 3219 c-11 -17 -10 -23 10 -39 28 -23 29 -23 52 -7 16 12 16 14
-8 40 -30 32 -37 33 -54 6z"/>
<path d="M7433 3230 c-161 -14 -232 -50 -279 -141 -32 -63 -25 -91 30 -122 54
-29 101 -108 111 -183 6 -48 3 -63 -18 -105 l-24 -49 53 -25 c63 -30 63 -30
80 -7 12 15 13 15 14 -10 0 -33 29 -43 93 -34 56 9 173 69 218 113 35 33 77
108 67 118 -2 3 -20 0 -39 -6 -36 -11 -166 -15 -176 -6 -3 4 -22 -5 -41 -18
l-36 -25 -34 33 c-41 38 -82 120 -82 162 0 47 24 72 88 92 31 9 74 32 96 50
21 17 72 49 113 71 l75 39 -29 21 c-54 39 -115 46 -280 32z"/>
<path d="M8495 3174 c-33 -30 -81 -65 -107 -78 -26 -13 -71 -43 -99 -66 -41
-35 -60 -44 -101 -48 -45 -4 -52 -8 -63 -36 -17 -40 -62 -83 -103 -97 -18 -6
-32 -14 -32 -18 0 -4 16 -23 36 -42 33 -32 39 -34 102 -33 129 3 285 78 410
198 64 62 72 73 72 107 0 21 -10 64 -21 95 l-22 57 -13 -32 c-19 -45 -26 -38
-9 9 8 22 13 40 12 40 -1 -1 -29 -26 -62 -56z"/>
<path d="M8132 3210 c-22 -9 -22 -10 -6 -42 10 -18 20 -58 23 -88 5 -49 9 -55
31 -58 14 -2 38 7 56 20 l32 24 -28 41 c-16 23 -30 57 -32 75 -2 27 -8 33 -28
35 -14 1 -35 -2 -48 -7z"/>
<path d="M7922 3183 c-12 -2 -20 -8 -17 -12 2 -5 -5 -9 -18 -9 -38 0 -199 -66
-260 -106 -78 -52 -131 -121 -123 -160 8 -38 10 -40 38 -26 l23 11 -22 -18
c-15 -12 -20 -22 -14 -32 16 -25 278 6 391 46 8 3 25 7 38 9 47 6 97 39 119
79 25 44 30 110 11 118 -9 4 -10 6 -1 6 15 1 0 57 -23 82 -17 19 -80 24 -142
12z"/>
<path d="M6487 3153 c-11 -3 -16 -11 -13 -19 4 -11 2 -12 -14 -4 -35 19 -40
10 -15 -26 28 -42 65 -135 65 -167 1 -20 2 -21 14 -4 18 24 29 22 16 -3 -6
-12 -8 -30 -5 -41 6 -19 9 -18 53 16 26 20 74 49 107 66 33 17 62 33 64 35 9
9 -34 44 -53 44 -17 0 -18 2 -6 10 12 8 7 18 -32 55 -45 43 -49 45 -105 44
-32 -1 -66 -3 -76 -6z"/>
<path d="M7072 3091 c-11 -7 -11 -9 1 -14 16 -6 27 0 27 15 0 10 -11 10 -28
-1z"/>
<path d="M6882 3040 c-39 -9 -34 -5 -61 -53 -23 -40 -31 -144 -10 -132 6 4 6
-1 -2 -12 -10 -16 -8 -31 6 -76 15 -48 21 -57 41 -57 20 0 24 5 25 33 l1 32
10 -37 c7 -26 16 -38 28 -38 14 0 20 15 30 83 16 107 38 197 56 224 8 12 14
25 14 28 0 10 -56 5 -69 -7 -10 -11 -11 -10 -6 5 8 19 -6 21 -63 7z"/>
<path d="M7020 2990 c-16 -30 -60 -210 -60 -245 0 -24 12 -7 54 80 30 61 58
127 61 148 7 35 6 37 -19 37 -15 0 -30 -8 -36 -20z"/>
<path d="M7438 2968 c-22 -7 -28 -16 -28 -39 0 -39 20 -86 55 -127 39 -47 52
-26 19 32 -22 39 -26 56 -22 97 3 27 5 49 4 48 -1 0 -13 -5 -28 -11z"/>
<path d="M7116 2932 c-3 -9 -33 -69 -66 -131 -33 -63 -58 -115 -57 -116 16
-10 90 -24 97 -20 6 3 10 2 10 -3 0 -6 14 -15 32 -21 29 -10 35 -8 67 17 49
40 63 69 57 120 -9 71 -46 125 -108 158 -24 12 -27 12 -32 -4z"/>
<path d="M6659 2901 c-59 -38 -97 -80 -109 -121 -5 -19 -8 -35 -6 -37 2 -2 35
11 73 29 l70 33 14 63 c8 34 12 62 9 62 -3 0 -26 -13 -51 -29z"/>
<path d="M6717 2873 c-16 -53 -14 -65 8 -56 10 3 15 20 15 54 0 27 -2 49 -5
49 -2 0 -11 -21 -18 -47z"/>
<path d="M6150 2770 c0 -59 19 -126 41 -146 18 -16 20 -16 41 2 l21 19 -17
-26 c-14 -22 -14 -28 -3 -38 11 -8 32 -1 93 34 43 25 85 45 93 45 7 0 -3 11
-23 25 -43 29 -53 30 -86 9 -16 -10 -13 -4 8 14 l33 29 -55 5 c-43 4 -67 13
-101 37 l-45 32 0 -41z"/>
<path d="M6720 2800 c-11 -6 -15 -20 -12 -49 4 -38 6 -41 34 -41 19 0 27 4 22
11 -4 7 -12 29 -18 50 -9 29 -15 36 -26 29z"/>
<path d="M6616 2760 c-43 -28 -58 -57 -28 -54 7 1 32 2 57 3 l45 1 0 40 c0 49
-10 50 -74 10z"/>
<path d="M6433 2756 c-39 -20 -41 -22 -23 -34 17 -10 23 -8 45 16 20 21 34 47
23 41 -2 -1 -22 -11 -45 -23z"/>
<path d="M6649 2631 c-24 -15 -57 -42 -72 -58 l-28 -30 108 -12 c202 -22 322
-49 412 -91 364 -174 465 -753 210 -1198 -89 -155 -213 -296 -329 -375 -25
-17 -47 -34 -50 -37 -12 -16 -181 -80 -240 -91 -36 -7 -68 -15 -72 -19 -13
-10 -197 9 -262 26 -74 20 -207 80 -273 124 l-48 31 35 -31 c39 -35 221 -127
320 -162 57 -20 83 -23 220 -23 88 0 181 6 215 13 259 56 470 200 617 422 168
252 220 429 198 679 -19 217 -99 455 -187 562 -57 69 -120 114 -137 100 -12
-10 -13 -9 -9 7 4 16 -7 24 -61 47 -64 27 -88 47 -31 25 48 -18 39 -4 -17 28
-99 55 -253 92 -389 92 -77 0 -89 -3 -130 -29z m104 12 c-13 -2 -33 -2 -45 0
-13 2 -3 4 22 4 25 0 35 -2 23 -4z m60 -10 c-7 -2 -19 -2 -25 0 -7 3 -2 5 12
5 14 0 19 -2 13 -5z"/>
<path d="M6505 2630 c-91 -18 -225 -86 -225 -113 0 -15 74 -14 174 4 49 9 69
19 122 65 l64 54 -47 -1 c-27 -1 -66 -5 -88 -9z"/>
<path d="M6250 2510 c-9 -6 -10 -10 -3 -10 6 0 15 5 18 10 8 12 4 12 -15 0z"/>
<path d="M6297 2493 c-24 -4 -66 -47 -56 -57 2 -2 33 11 69 30 64 33 62 38
-13 27z"/>
<path d="M6460 2474 c-71 -18 -231 -97 -274 -135 -19 -16 -39 -29 -45 -29 -7
0 -52 -39 -101 -86 -93 -90 -164 -185 -201 -269 -12 -27 -30 -70 -41 -94 -32
-70 -68 -228 -74 -321 -6 -83 14 -225 33 -239 5 -3 10 -17 11 -31 6 -42 53
-118 123 -199 166 -192 391 -302 618 -303 204 0 386 84 543 251 201 212 317
486 318 746 0 214 -69 407 -189 525 -114 112 -254 163 -499 181 -75 5 -144 11
-152 13 -8 3 -40 -2 -70 -10z m170 -24 c0 -5 -13 -10 -29 -10 -17 0 -33 5 -36
10 -4 6 8 10 29 10 20 0 36 -4 36 -10z m-537 -265 c-3 -9 -8 -14 -10 -11 -3 3
-2 9 2 15 9 16 15 13 8 -4z m299 -27 c146 -78 172 -192 78 -341 l-31 -49 39
-42 c69 -75 79 -193 27 -312 l-24 -55 26 3 c24 3 29 11 45 68 11 36 36 124 58
195 50 171 71 261 85 370 l11 90 32 3 c39 4 143 -29 227 -71 174 -87 261 -206
266 -364 4 -148 -58 -301 -166 -409 -81 -81 -142 -113 -258 -139 -107 -24
-262 -5 -321 38 -19 14 -19 16 7 100 33 103 33 107 4 107 -14 0 -41 -19 -72
-51 -63 -64 -151 -110 -226 -116 -94 -9 -254 55 -273 109 -11 33 18 110 64
168 42 53 62 57 105 24 21 -16 53 -28 79 -31 38 -5 46 -2 56 17 7 14 10 45 8
78 -6 62 -23 82 -74 82 -17 0 -36 6 -41 13 -12 14 -35 165 -28 177 3 5 21 14
39 20 41 13 66 60 46 85 -17 20 -39 19 -79 -6 -18 -11 -39 -18 -45 -16 -6 3
-24 30 -39 61 -16 31 -36 60 -45 66 -10 5 -12 10 -4 10 6 0 12 8 12 18 0 11
16 27 40 41 22 12 40 26 40 32 0 5 9 9 19 9 11 0 23 4 26 10 11 17 98 39 164
39 53 1 73 -4 123 -31z"/>
<path d="M6135 2124 c-44 -23 -95 -58 -95 -66 0 -12 33 3 60 27 14 13 39 30
55 38 17 9 26 16 20 17 -5 0 -23 -7 -40 -16z"/>
<path d="M6175 2110 c-40 -20 -85 -63 -85 -81 0 -5 21 -9 48 -9 38 0 55 -6 83
-30 20 -16 39 -42 42 -58 9 -46 -9 -104 -42 -134 -33 -29 -43 -78 -17 -78 8 0
17 5 19 10 3 6 4 5 3 -2 -1 -7 11 -22 28 -33 45 -30 66 -79 66 -154 0 -81 -17
-137 -49 -163 -27 -21 -21 -20 -178 -5 -13 1 -23 8 -23 15 0 24 -26 11 -53
-29 -41 -57 -32 -82 41 -110 122 -48 230 -23 327 74 68 69 96 125 103 203 7
98 -3 130 -59 186 l-51 50 30 32 c43 45 72 119 72 182 0 61 -27 102 -91 134
-52 27 -159 27 -214 0z"/>
<path d="M6764 2011 c14 -26 22 -31 54 -31 32 0 145 -30 207 -56 17 -7 18 -5
8 7 -21 26 -191 101 -239 107 l-46 5 16 -32z"/>
<path d="M6030 2021 c0 -5 11 -16 25 -25 25 -16 30 -11 19 18 -6 17 -44 23
-44 7z"/>
<path d="M6716 1912 c-10 -59 -20 -118 -21 -132 -3 -23 -61 -236 -101 -368
-49 -166 46 71 111 275 9 29 14 57 11 62 -4 5 -2 11 3 13 6 1 18 48 27 104 14
86 15 104 3 127 -13 25 -15 20 -33 -81z"/>
<path d="M6158 1983 c6 -2 18 -2 25 0 6 3 1 5 -13 5 -14 0 -19 -2 -12 -5z"/>
<path d="M6218 1938 c10 -21 18 -29 20 -20 2 8 -5 24 -17 35 l-20 21 17 -36z"/>
<path d="M6761 1829 c-23 -122 -65 -270 -116 -404 -14 -38 -24 -78 -21 -87 2
-10 0 -18 -5 -18 -12 0 -32 -71 -27 -100 3 -21 15 -28 98 -52 109 -32 138 -31
227 11 71 34 174 135 208 206 38 77 52 140 36 159 -23 28 -39 17 -55 -36 -20
-67 -78 -144 -136 -180 -80 -50 -202 -59 -250 -20 l-21 17 50 150 c27 83 57
186 66 230 9 44 20 84 25 89 5 5 41 -3 87 -19 61 -23 89 -40 129 -80 31 -31
54 -64 59 -83 4 -21 16 -37 35 -47 26 -14 28 -13 34 8 13 49 5 152 -15 197
-34 76 -62 97 -183 136 -61 19 -131 38 -156 41 l-46 5 -23 -123z"/>
<path d="M6206 1831 c-10 -11 -31 -23 -47 -26 -21 -5 -29 -11 -25 -23 2 -10 7
-33 10 -54 6 -30 13 -39 49 -56 71 -34 82 -52 82 -144 0 -75 -2 -81 -29 -105
-24 -21 -35 -23 -69 -18 -22 4 -55 14 -73 21 -41 17 -46 3 -6 -16 81 -38 162
-26 183 27 6 15 11 60 12 98 0 103 -32 155 -96 155 -28 0 -37 16 -37 66 0 27
6 36 29 48 16 9 31 22 34 31 8 20 4 19 -17 -4z"/>
<path d="M6830 1633 c-12 -59 -35 -148 -51 -198 -16 -49 -29 -91 -29 -92 0 -1
26 -1 58 0 101 3 194 81 222 187 10 38 9 46 -10 71 -11 16 -16 29 -10 29 18 0
-13 40 -47 61 -18 11 -38 17 -44 13 -8 -4 -9 -3 -5 4 7 12 -23 32 -47 32 -10
0 -21 -31 -37 -107z"/>
<path d="M6019 1434 c-22 -25 -59 -104 -59 -123 1 -9 7 -2 14 14 7 17 25 45
40 62 31 36 35 81 5 47z"/>
<path d="M6966 1370 c-52 -40 -58 -47 -18 -24 29 17 72 54 61 54 -2 0 -21 -14
-43 -30z"/>
<path d="M6546 1263 c-14 -43 -26 -84 -26 -90 0 -14 52 -29 130 -37 l55 -5
-70 24 c-38 13 -71 25 -72 25 -8 1 -1 92 8 119 6 18 9 34 6 37 -3 3 -17 -30
-31 -73z"/>
<path d="M6135 2419 c-106 -91 -106 -90 -59 -78 59 16 149 78 162 111 9 25 8
28 -11 28 -12 -1 -53 -28 -92 -61z"/>
<path d="M6024 2310 c-23 -9 -84 -75 -84 -91 0 -6 -4 -7 -10 -4 -9 6 -59 -56
-86 -107 -13 -25 -13 -28 1 -28 8 0 30 30 50 68 20 37 33 56 30 42 l-6 -25 21
27 c12 15 47 50 78 78 53 46 55 60 6 40z"/>
<path d="M5780 1989 c-44 -87 -113 -309 -108 -349 2 -14 14 20 29 81 28 110
62 198 111 282 30 51 34 67 18 67 -5 0 -28 -36 -50 -81z"/>
<path d="M5604 1518 l21 -103 3 94 c2 69 -1 97 -10 103 -32 20 -34 6 -14 -94z"/>
<path d="M5661 1519 c1 -41 5 -85 9 -99 5 -15 6 15 3 70 -7 115 -13 131 -12
29z"/>
<path d="M5680 1365 c1 -41 22 -110 46 -149 30 -47 27 -34 -15 84 -17 47 -31
76 -31 65z"/>
<path d="M5790 1112 c0 -15 155 -179 183 -194 11 -5 -14 23 -55 63 -41 41 -87
90 -101 109 -15 19 -27 29 -27 22z"/>
<path d="M11197 4283 c-31 -53 -54 -100 -51 -105 3 -4 20 -8 38 -8 18 0 83 -7
146 -15 62 -8 115 -13 117 -11 5 5 -179 234 -187 235 -3 1 -31 -42 -63 -96z"/>
<path d="M1754 4280 c-11 -4 -33 -22 -47 -40 -41 -49 -36 -88 25 -195 28 -49
52 -92 54 -94 4 -5 212 108 219 118 9 16 -92 185 -121 203 -30 19 -94 23 -130
8z"/>
<path d="M10083 3142 c-73 -70 -104 -107 -110 -132 -19 -68 20 -120 88 -120
31 0 49 11 120 74 46 40 97 87 113 104 l28 31 -63 70 c-35 39 -66 71 -69 71
-3 0 -51 -44 -107 -98z"/>
<path d="M10393 2854 c-125 -115 -142 -172 -68 -220 46 -30 84 -12 194 89
l101 92 -62 62 c-34 35 -65 63 -68 63 -3 0 -47 -39 -97 -86z"/>
<path d="M2930 3146 c-113 -30 -190 -113 -220 -237 -25 -100 27 -217 120 -269
65 -36 174 -35 246 2 145 76 210 251 141 385 -31 61 -78 99 -143 119 -56 17
-84 17 -144 0z"/>
<path d="M8774 2206 c-61 -28 -106 -80 -128 -148 -20 -63 -20 -100 0 -168 60
-201 281 -285 424 -162 64 54 85 103 85 197 0 68 -4 89 -28 137 -69 141 -224
204 -353 144z"/>
</g>
</svg>
