<svg width="75" height="75" viewBox="0 0 75 75" fill="none" xmlns="http://www.w3.org/2000/svg">
<g clip-path="url(#clip0_910_2)">
<path d="M28.1425 17.0847C27.8716 17.2369 28.1854 17.6547 28.4125 17.8756C28.6066 18.0517 28.8593 18.1632 29.1215 18.1506C29.3683 18.1387 29.6143 18.1113 29.8596 18.0686C30.2584 18.0029 30.638 17.861 31.0162 17.6881C31.5155 17.463 32.0354 17.3452 32.5929 17.3647C32.9175 17.3645 33.215 17.4429 33.5148 17.5675C33.5941 17.6101 33.6742 17.6681 33.7389 17.7268C33.8197 17.8002 33.8249 17.9081 33.7523 18.0044C33.7083 18.0529 33.6642 18.1014 33.604 18.1352C33.4843 18.2183 33.3478 18.2713 33.1943 18.2941C32.689 18.3958 32.18 18.4204 31.6865 18.4442C30.8991 18.4667 30.111 18.4738 29.32 18.4193C28.5443 18.3639 27.7694 18.324 26.9873 18.4545C26.5577 18.5216 26.131 18.6505 25.7382 18.8395C25.5267 18.9424 25.3638 19.0894 25.2662 19.3106C25.0286 19.8322 25.1877 20.5666 25.6976 20.8821C25.8409 20.9679 25.968 21.0391 26.1252 21.0933C26.4867 21.215 26.8568 21.1972 27.2248 21.133C27.9151 21.0224 28.5848 20.8046 29.2207 20.5265C29.872 20.2478 30.5424 20.0454 31.2557 20.0882C31.2711 20.0875 31.3019 20.086 31.3173 20.0853C31.7793 20.0475 32.2186 20.1809 32.6293 20.3621C32.9452 20.5014 33.0974 20.7723 33.0984 21.1124C33.0832 21.4378 32.8637 21.6957 32.5398 21.7113C32.3239 21.7218 32.1072 21.7168 31.9052 21.6956C31.4711 21.6702 31.0355 21.6139 30.586 21.5892C29.7178 21.5383 28.8556 21.6109 27.9787 21.6996C27.7481 21.7262 27.5322 21.7366 27.3015 21.7632C26.7023 21.8385 26.1199 21.9439 25.5206 22.0192C24.8604 22.1129 24.22 22.2984 23.5973 22.5294C23.1112 22.7074 22.6435 22.9464 22.2258 23.2603C21.9424 23.475 21.7075 23.7337 21.5366 24.0356C21.296 24.4956 21.2802 25.1302 21.7344 25.5721C21.9123 25.7335 22.104 25.8634 22.3391 25.9294C22.6521 26.007 22.9628 26.0384 23.2852 25.9919C23.8837 25.9012 24.4462 25.704 24.9918 25.4767C25.5976 25.2156 26.1842 24.8781 26.7554 24.5413C27.3413 24.1884 27.9603 23.8802 28.5961 23.6022C29.1718 23.358 29.7711 23.2827 30.3726 23.2537C30.8199 23.2321 31.2709 23.2876 31.7087 23.3902C32.1473 23.5081 32.5866 23.6415 32.9965 23.8073C33.7224 24.1123 34.2258 24.6137 34.4489 25.3913C34.842 26.8101 33.7316 28.1468 32.1965 28.0509C31.6999 28.013 31.2452 27.8803 30.83 27.6066C30.7977 27.5773 30.7507 27.5641 30.7029 27.5355C30.6604 27.6148 30.6178 27.6942 30.5599 27.7743C30.3449 28.1248 30.0299 28.3255 29.6142 28.361C29.1831 28.3973 28.8209 28.2601 28.5122 27.9504C28.463 27.8909 28.3991 27.8476 28.3822 27.8175C28.1515 27.8441 27.9679 27.8839 27.7829 27.8928C27.5816 27.8871 27.4222 27.7866 27.262 27.6706C27.101 27.5392 27.0759 27.3395 26.976 27.1897C25.3806 27.1276 21.7848 28.5378 20.7543 29.6079C20.8197 29.682 20.8851 29.7562 20.9358 29.8465C21.152 30.1607 21.2146 30.4978 21.0767 30.8446C20.8428 31.4433 20.4127 31.8196 19.7517 31.8979C19.4594 31.9275 19.1957 31.9093 18.9268 31.7831C18.8952 31.7692 18.8482 31.756 18.8012 31.7428C18.7725 31.7906 18.7432 31.8229 18.7138 31.8552C18.0263 32.986 17.7466 34.2363 17.6541 35.5239C17.6105 36.2217 17.5977 36.918 17.7399 37.6223C17.7797 37.8059 17.8033 37.9748 17.8277 38.1591C17.9243 38.881 18.1583 39.5654 18.4533 40.2314C18.835 41.0942 19.3967 41.8401 20.0038 42.5683C20.6102 43.2811 21.3487 43.8484 22.1298 44.3363C23.2767 45.0384 24.5043 45.4894 25.8522 45.548C26.58 45.5747 27.2674 45.4024 27.918 45.1082C28.6141 44.7963 29.2432 44.3795 29.8724 43.9626C30.3225 43.6781 30.7556 43.3635 31.1895 43.0643C31.7724 42.6496 32.3708 42.2343 32.9191 41.744C33.0674 41.6132 33.2311 41.4816 33.3786 41.3354C33.5423 41.2038 33.7105 41.1648 33.914 41.2168C34.102 41.2695 34.3048 41.3061 34.5075 41.3427C34.57 41.3552 34.6162 41.3529 34.6787 41.3654C34.8035 41.3903 34.8697 41.4799 34.8911 41.6025C34.9117 41.7097 34.8376 41.7751 34.7627 41.8251C34.748 41.8413 34.7172 41.8428 34.7025 41.8589C33.8735 42.3009 33.1754 42.8911 32.495 43.5269C31.5627 44.3912 30.8076 45.4016 30.0525 46.412C29.1968 47.5818 28.6247 48.8617 28.3377 50.2823C28.1869 51.0008 28.0985 51.7316 27.9946 52.4632C27.9376 52.8834 27.9276 53.3167 27.9793 53.7471C27.9838 53.8397 28.0183 53.9153 28.0382 54.0071C28.0845 54.0048 28.0999 54.0041 28.13 53.9872C28.1902 53.9534 28.2504 53.9195 28.3106 53.8857C29.1806 53.3336 30.119 52.9173 31.1089 52.6067C32.4645 52.1857 33.8613 51.9791 35.2634 51.8806C36.1418 51.8227 37.021 51.7803 37.9031 51.7996C38.9703 51.8099 40.0529 51.8195 41.1194 51.8144C42.31 51.8188 43.5145 51.7916 44.6962 51.6109C45.3101 51.5194 45.9226 51.3971 46.4998 51.1837C46.5908 51.1484 46.6811 51.0977 46.7575 51.0785C46.7553 51.0323 46.7692 51.0007 46.753 50.986C46.7331 50.8942 46.6986 50.8186 46.6633 50.7275C46.3146 49.9095 45.905 49.1099 45.3904 48.3773C44.8589 47.6145 44.2686 46.9164 43.6769 46.1874C43.266 45.6816 42.8103 45.2089 42.3693 44.72C41.7659 44.0689 41.0876 43.4678 40.3822 42.9453C39.6922 42.4221 38.9743 41.962 38.1706 41.6452C38.1235 41.632 38.092 41.6181 38.0442 41.5895C37.9487 41.5322 37.9273 41.4096 38.0007 41.3288C38.0594 41.2641 38.1336 41.1987 38.193 41.1494C38.3868 41.0009 38.599 40.9134 38.8274 40.8405C39.1013 40.75 39.3356 40.8005 39.5466 41.0068C39.6767 41.1397 39.806 41.2571 39.9654 41.3576C40.9258 42.0379 41.9288 42.6388 42.9611 43.2073C43.5805 43.5485 44.2285 43.8418 44.8618 44.1514C45.5113 44.4756 46.2135 44.6118 46.923 44.5775C47.6479 44.5426 48.3176 44.3247 48.9689 44.046C50.1041 43.5428 51.0893 42.8151 51.9907 41.9522C52.8628 41.1217 53.5415 40.1305 54.1086 39.0673C54.1504 38.9725 54.1922 38.8778 54.2348 38.7984C54.5545 38.0564 54.7802 37.288 54.9119 36.4932C55.0188 35.8233 55.0631 35.1409 54.9687 34.4652C54.9488 34.3735 54.9597 34.2802 54.9553 34.1876C54.9444 33.3224 54.7647 32.4808 54.4476 31.6768C54.149 30.9337 53.7167 30.3052 53.1787 29.7283C53.114 29.6695 53.0493 29.6108 52.9847 29.5521C52.7886 29.6543 52.6242 29.7705 52.4259 29.8264C51.7408 30.045 51.0855 29.922 50.4948 29.5331C50.3831 29.4612 50.2853 29.3577 50.203 29.2535C49.8583 28.8373 49.7735 28.3621 49.981 27.8574C50.0089 27.7942 50.0368 27.731 50.0778 27.6208C49.7788 27.5116 49.5114 27.4163 49.2594 27.3202C48.6768 27.101 48.095 26.8971 47.4853 26.7565C46.5311 26.5243 45.5651 26.3699 44.5743 26.3404C43.9551 26.324 43.3367 26.3229 42.7242 26.4452C42.2652 26.5446 41.8077 26.6749 41.3863 26.9117C41.1756 27.0301 40.9656 27.1639 40.7394 27.283C40.5889 27.3676 40.5016 27.48 40.4334 27.6688C40.2443 28.2345 39.637 28.4648 39.1131 28.1809C38.9699 28.095 38.8281 28.04 38.6738 28.0475C38.5813 28.0519 38.4873 28.0256 38.4094 28.0139C37.4728 27.8272 36.7547 27.0425 36.6476 26.1046C36.5701 25.459 36.7739 24.8772 37.1033 24.3357C37.4343 23.825 37.9291 23.5074 38.4747 23.2801C39.2633 22.9638 40.0748 22.8009 40.9077 22.7607C41.6326 22.7257 42.3488 22.8303 43.0416 23.0906C43.7498 23.3502 44.4301 23.6729 45.1251 23.9795C45.8525 24.3154 46.6077 24.5882 47.4032 24.7353C47.653 24.7851 47.9167 24.8033 48.1803 24.8215C48.4903 24.8374 48.7965 24.7763 49.069 24.6549C49.8113 24.3408 50.0965 23.5231 49.7068 22.8153C49.6222 22.6648 49.5068 22.5158 49.3775 22.3984C48.9556 21.9859 48.4487 21.7321 47.8984 21.5422C47.0977 21.2871 46.2867 21.1407 45.4486 21.0729C44.3623 20.9862 43.265 20.9928 42.1677 20.9994C41.2709 20.9963 40.3947 21.1004 39.5076 21.2978C39.1705 21.3604 38.8334 21.4231 38.5095 21.4387C38.1709 21.4705 37.8961 21.221 37.8643 20.8824C37.8325 20.5438 37.9586 20.2749 38.2442 20.1065C38.455 19.9882 38.698 19.8991 38.9249 19.7954C39.1525 19.7071 39.414 19.6791 39.6608 19.6672C39.9847 19.6515 40.3232 19.6197 40.6347 19.6665C40.9924 19.7111 41.3377 19.8181 41.683 19.9251C42.3581 20.1399 43.0302 20.293 43.728 20.3366C44.1158 20.3643 44.5014 20.3457 44.8487 20.1743C45.453 19.8823 45.679 19.4386 45.6367 18.8841C45.6345 18.8378 45.6323 18.7915 45.6146 18.746C45.549 18.3472 45.3343 18.0639 44.956 17.9121C44.5468 17.7617 44.1259 17.6893 43.7065 17.6477C43.0087 17.6041 42.3315 17.6677 41.6574 17.793C40.5235 18.0023 39.3843 18.1036 38.2261 18.1286C37.9477 18.1266 37.6848 18.1238 37.4203 18.0902C37.1713 18.0558 36.9355 17.9745 36.8457 17.716C36.9 17.5588 36.9888 17.4772 37.1246 17.4088C37.2759 17.3396 37.4264 17.2551 37.5946 17.2161C38.1138 17.0828 38.6382 17.0575 39.17 17.1864C39.3573 17.2237 39.5307 17.2927 39.7188 17.3454C39.9539 17.4114 40.2044 17.4766 40.4387 17.5271C40.7979 17.6025 41.1549 17.6317 41.5081 17.5837C42.0619 17.5261 42.4443 17.1212 42.4352 16.6114C42.4314 16.5343 42.4416 16.4256 42.363 16.3985C38.9646 15.1711 31.2107 15.3134 28.1425 17.0847ZM33.4566 28.8558C33.6424 28.8623 33.7725 28.9951 33.7814 29.1802C33.7896 29.3499 33.6428 29.5116 33.4732 29.5197C33.2881 29.5287 33.1103 29.3672 33.1167 29.1814C33.124 29.011 33.2715 28.8647 33.4566 28.8558ZM31.126 29.8958C31.5579 29.875 31.9297 30.2126 31.9344 30.6298C31.9545 31.0462 31.6316 31.4019 31.2151 31.422C30.7833 31.4429 30.4122 31.1207 30.4067 30.688C30.3866 30.2716 30.7096 29.9159 31.126 29.8958ZM22.5153 29.2601C22.8546 29.2437 23.1633 29.5535 23.165 29.909C23.1674 30.2799 22.8276 30.6055 22.4413 30.6087C22.0858 30.6104 21.8263 30.3601 21.8092 30.0053C21.7928 29.666 22.0218 29.2839 22.5153 29.2601ZM32.5347 40.1857C32.5362 40.2166 32.5223 40.2482 32.5245 40.2944C32.5165 40.4494 32.4446 40.5611 32.3095 40.6449C31.7383 40.9817 31.134 41.2736 30.4937 41.4591C28.345 42.1039 26.2516 41.973 24.2524 40.9101C22.3326 39.8896 21.1123 38.3098 20.5778 36.2022C20.4254 35.6066 20.3486 34.9765 20.3651 34.3573C20.3723 34.1869 20.428 34.0605 20.5778 33.9605C21.6093 33.2305 22.7291 32.7282 23.9702 32.4982C24.9506 32.3118 25.9399 32.3104 26.9235 32.5103C27.0954 32.5484 27.2519 32.5872 27.4554 32.6392C26.8697 33.3168 26.688 34.0367 27.127 34.804C27.4645 35.3906 28.0023 35.6429 28.6794 35.5793C29.4946 35.4936 29.982 35.0218 30.1901 34.2078C30.2702 34.2658 30.3334 34.2937 30.3826 34.3531C31.2425 35.1928 31.8315 36.1847 32.1958 37.3266C32.5034 38.2548 32.5958 39.2088 32.5347 40.1857ZM36.0491 41.2529C36.0347 41.5937 36.0202 41.9345 35.8808 42.2504C35.8537 42.329 35.7957 42.4091 35.7524 42.473C35.7363 42.4584 35.7209 42.4591 35.6893 42.4452C35.701 42.3673 35.7127 42.2894 35.7244 42.2116C35.7353 42.1183 35.7301 42.0103 35.7249 41.9024C35.7277 41.6394 35.5946 41.4449 35.3581 41.3481C35.1685 41.2645 34.9797 41.1963 34.7916 41.1435C34.6352 41.1047 34.4787 41.0659 34.3384 41.0417C34.0262 40.9795 33.7272 40.8702 33.4568 40.7132C33.1387 40.5276 32.9093 40.2604 32.7835 39.8954C32.6738 39.5452 32.7684 39.2623 33.0849 39.0925C33.5812 38.8057 34.1041 38.7495 34.6287 39.0489C34.8675 39.1919 35.1078 39.3659 35.2879 39.5736C35.4687 39.7968 35.6503 40.0354 35.801 40.2754C35.9701 40.5765 36.0629 40.8966 36.0491 41.2529ZM36.1611 39.4078C35.9215 39.2493 35.7121 39.0739 35.5459 38.8346C35.5459 38.8346 35.5606 38.8184 35.5746 38.7868C35.6385 38.8301 35.7024 38.8734 35.7509 38.9174C35.8148 38.9607 35.8795 39.0194 35.9434 39.0627C36.1999 39.2513 36.4467 39.2394 36.6684 39.0277C36.7719 38.93 36.8746 38.8168 37.0221 38.6706C37.0112 38.7639 37.0134 38.8101 36.9995 38.8417C36.8865 39.0636 36.7243 39.226 36.5459 39.3738C36.4262 39.4568 36.2889 39.4944 36.1611 39.4078ZM39.436 40.3165C39.212 40.4819 38.9551 40.6025 38.6812 40.693C38.4682 40.7651 38.2552 40.8372 38.043 40.9248C37.8 41.0138 37.5746 41.1483 37.3823 41.3277C37.2193 41.4747 37.1504 41.6481 37.1608 41.864C37.1675 42.0028 37.1749 42.157 37.1854 42.373C36.9553 42.0903 36.8802 41.8157 36.8205 41.5403C36.7807 41.3567 36.7726 41.1871 36.7636 41.002C36.7525 40.7706 36.7883 40.5524 36.8866 40.3467C37.0531 39.9522 37.2526 39.6025 37.5308 39.2799C37.7363 39.0535 37.9741 38.8565 38.2458 38.7197C38.729 38.48 39.1976 38.581 39.6275 38.8386C39.8023 38.9383 39.903 39.1035 39.898 39.3202C39.9181 39.7367 39.7641 40.0687 39.436 40.3165ZM47.3384 27.8767C47.3772 27.7202 47.5116 27.621 47.6966 27.612C47.928 27.6009 48.1183 27.6999 48.2359 27.8952C48.3705 28.1206 48.2876 28.3256 48.0438 28.3992C47.9983 28.4168 47.952 28.4191 47.9212 28.4206C47.7515 28.4288 47.6105 28.3892 47.4973 28.2864C47.354 28.2006 47.2996 28.0332 47.3384 27.8767ZM42.8861 26.9166C43.3789 26.8774 43.8147 27.2583 43.8392 27.7673C43.8638 28.2763 43.4821 28.6966 42.9886 28.7204C42.5105 28.7435 42.0908 28.3773 42.0516 27.8845C42.0278 27.3909 42.3933 26.9559 42.8861 26.9166ZM50.1746 38.917C49.0451 40.1774 47.6295 40.9568 45.9764 41.2994C44.2616 41.645 42.5832 41.4632 40.9728 40.7679C40.878 40.7261 40.7832 40.6843 40.6885 40.6425C40.5467 40.5875 40.4805 40.4979 40.4576 40.3445C40.3515 39.7467 40.3063 39.1305 40.339 38.526C40.3956 37.4565 40.641 36.4553 41.1362 35.5038C41.3768 35.0439 41.6651 34.6125 42.0013 34.2098C42.0446 34.1459 42.104 34.0967 42.1782 34.0312C42.393 34.6393 42.7694 35.0694 43.3945 35.2093C43.8639 35.3258 44.3244 35.2572 44.7289 34.9903C45.2083 34.6735 45.4489 34.2135 45.4522 33.6414C45.4555 33.0692 45.2019 32.6176 44.7653 32.2213C45.341 31.9771 45.891 31.8423 46.4441 31.7693C47.5501 31.6231 48.6203 31.6952 49.7016 31.9985C50.3914 32.1972 51.0387 32.4751 51.6735 32.8155C51.8954 32.9285 51.9961 33.0937 52.0234 33.3397C52.1724 35.4659 51.5978 37.3333 50.1746 38.917ZM28.6339 55.1378C28.6433 55.0137 28.7498 54.9776 28.81 54.9438C29.4385 54.5115 30.1176 54.1695 30.8321 53.9186C31.7434 53.5809 32.6915 53.3651 33.6587 53.2257C34.9175 53.0413 36.1976 52.9795 37.4808 52.9794C38.5318 52.9751 39.5843 53.0016 40.6354 52.9972C41.8877 52.9986 43.1399 53 44.384 52.8318C44.9371 52.7587 45.4724 52.6401 46.0085 52.537C46.0394 52.5355 46.0702 52.534 46.162 52.5141C46.162 52.5141 40.2724 57.3279 37.862 57.6762C35.4833 58.0383 28.6339 55.1378 28.6339 55.1378ZM44.4387 36.0246C44.4551 36.364 44.1909 36.655 43.8361 36.6721C43.5122 36.6877 43.2535 36.4529 43.2225 36.1297C43.1907 35.7911 43.4542 35.4847 43.7927 35.4529C44.1313 35.4211 44.4223 35.6853 44.4387 36.0246ZM29.2425 36.356C29.2743 36.6946 29.0248 36.9695 28.7016 37.0005C28.3623 37.0169 28.0566 36.7688 28.0402 36.4295C28.0246 36.1056 28.2727 35.7999 28.5966 35.7843C28.9043 35.754 29.2107 36.0175 29.2425 36.356Z" fill="#ffffff"/>
<path d="M11.131 20.416L8.42337 19.0269L9.91127 21.4438L9.45593 22.3265L6.70573 22.5202L9.30549 23.8866L8.36773 25.6996L2.45899 22.5914L3.31756 20.9511L7.47413 20.6736L5.30249 17.1503L6.16106 15.51L12.0839 18.602L11.131 20.416Z" fill="#FFFFFF"/>
<path d="M15.0148 15.3025C14.3877 15.4679 13.7794 15.4651 13.1747 15.2951C12.57 15.1252 12.0447 14.7828 11.6007 14.2981C11.1556 13.7983 10.8598 13.2577 10.7413 12.6439C10.6229 12.0302 10.6719 11.4198 10.9035 10.8118C11.12 10.2049 11.5081 9.6618 12.0366 9.16952C12.5661 8.69234 13.1515 8.36296 13.7786 8.19754C14.4057 8.03213 15.014 8.03493 15.6187 8.20488C16.2233 8.37483 16.7487 8.71725 17.1927 9.20193C17.6378 9.70172 17.9336 10.2423 18.0521 10.8561C18.1705 11.4698 18.1215 12.0802 17.8899 12.6882C17.6734 13.2951 17.2853 13.8382 16.7568 14.3305C16.2273 14.8077 15.6419 15.137 15.0148 15.3025ZM15.9491 12.3237C16.0232 12.0758 16.0195 11.8029 15.9553 11.5343C15.8911 11.2657 15.7362 11.0035 15.5056 10.7466C15.276 10.5048 15.0355 10.3245 14.7558 10.2379C14.4903 10.1352 14.231 10.123 13.9607 10.1723C13.7056 10.2206 13.4708 10.3433 13.2564 10.5404C13.0561 10.7214 12.9043 10.9445 12.8313 11.2075C12.7572 11.4555 12.7609 11.7283 12.825 11.9969C12.8892 12.2655 13.0442 12.5277 13.2748 12.7846C13.5044 13.0265 13.7449 13.2068 14.0245 13.2934C14.2901 13.3961 14.5494 13.4082 14.8196 13.3589C15.0747 13.3107 15.3095 13.188 15.5239 12.9908C15.7232 12.7948 15.875 12.5717 15.9491 12.3237Z" fill="#FFFFFF"/>
<path d="M23.0312 9.62137C22.3891 9.57542 21.8122 9.37327 21.3006 9.01493C20.789 8.65659 20.4053 8.16798 20.1354 7.56527C19.8644 6.94746 19.7772 6.3471 19.8555 5.71997C19.9349 5.10793 20.1849 4.54457 20.5916 4.04604C20.9983 3.5475 21.5334 3.1461 22.1828 2.85798C22.8474 2.5688 23.4932 2.44771 24.1353 2.49367C24.7774 2.53962 25.3543 2.74177 25.8659 3.10011C26.3775 3.45845 26.7612 3.94705 27.0311 4.54977C27.3021 5.16758 27.3893 5.76794 27.311 6.39507C27.2316 7.00711 26.9816 7.57047 26.5749 8.069C26.1682 8.56753 25.6331 8.96893 24.9837 9.25705C24.3181 9.53115 23.6723 9.65223 23.0312 9.62137ZM24.8646 7.09725C25.0166 6.87433 25.1058 6.62548 25.1325 6.3507C25.158 6.06083 25.0928 5.77733 24.9649 5.46789C24.837 5.15846 24.6527 4.91363 24.4282 4.74742C24.2027 4.56613 23.9672 4.46134 23.7067 4.43412C23.4462 4.4069 23.1899 4.44003 22.9236 4.54967C22.6725 4.65824 22.4559 4.82505 22.3039 5.04797C22.152 5.27089 22.0628 5.51974 22.0361 5.79452C22.0106 6.08439 22.0758 6.36789 22.2037 6.67732C22.3316 6.98675 22.5159 7.23159 22.7404 7.39779C22.9659 7.57909 23.2014 7.68387 23.4619 7.7111C23.7234 7.75341 23.9787 7.70519 24.245 7.59555C24.5102 7.47082 24.7117 7.30507 24.8646 7.09725Z" fill="#FFFFFF"/>
<path d="M36.8795 0.00960421L37.4759 6.66301L35.6344 6.83807L32.8281 4.04453L33.0973 7.06204L30.9081 7.26155L30.3116 0.608147L32.1532 0.43309L34.9594 3.22662L34.6902 0.209118L36.8795 0.00960421Z" fill="#FFFFFF"/>
<path d="M49.4975 8.70588L47.1417 7.76225L46.2943 8.67346L44.1724 7.81975L49.3723 2.7092L51.4318 3.53691L51.6316 10.8359L49.4784 9.96915L49.4975 8.70588ZM49.5295 6.97038L49.5574 5.17436L48.3285 6.4926L49.5295 6.97038Z" fill="#FFFFFF"/>
<path d="M61.1046 10.354C61.3342 10.8069 61.411 11.2554 61.3655 11.6973C61.3209 12.1543 61.1216 12.5766 60.7978 12.9623C60.474 13.348 60.0964 13.6164 59.6486 13.7535C59.2161 13.8896 58.759 13.8912 58.2621 13.7594C57.7804 13.6266 57.2893 13.3583 56.8202 12.9675L56.0765 12.3537L55.0214 13.6224L53.2768 12.201L57.5536 7.06166L60.042 9.09681C60.5262 9.48662 60.8761 9.91607 61.1046 10.354ZM58.4935 11.822C58.7058 11.8072 58.8826 11.7192 59.0369 11.5269C59.1913 11.3346 59.2535 11.1336 59.2248 10.9389C59.196 10.7443 59.0601 10.542 58.8179 10.3471L58.1877 9.83128L57.1891 11.0356L57.8193 11.5513C58.0615 11.7463 58.2811 11.8368 58.4935 11.822Z" fill="#FFFFFF"/>
<path d="M64.106 21.8829L62.6973 22.8462L59.5662 18.2583L65.1012 14.5032L68.1645 18.9897L66.7558 19.953L64.9452 17.3046L64.2912 17.7448L65.8821 20.0749L64.546 20.9876L62.9551 18.6575L62.2285 19.1483L64.106 21.8829Z" fill="#FFFFFF"/>
<path d="M72.4357 40.2098L72.1003 42.4181L67.1912 41.7027L66.7396 44.6574L64.9951 44.4013L65.7809 39.2234L72.4357 40.2098Z" fill="#FFFFFF"/>
<path d="M63.3075 51.3268L64.3817 49.0388L63.5133 48.1448L64.481 46.0764L69.3033 51.5434L68.3616 53.5493L61.0592 53.3637L62.0551 51.263L63.3075 51.3268ZM65.0507 51.4472L66.8545 51.5634L65.6085 50.2714L65.0507 51.4472Z" fill="#FFFFFF"/>
<path d="M57.4679 61.4643C57.1157 61.4284 56.7864 61.2846 56.5094 61.0158C56.0867 60.6207 55.9161 60.132 55.9985 59.5649C56.0961 58.9967 56.4477 58.3652 57.0707 57.6994L59.6319 54.9405L64.5366 59.4661L62.1022 62.0796C61.4933 62.7291 60.9272 63.1178 60.3726 63.2326C59.8331 63.3464 59.3687 63.2272 58.9795 62.8753C58.752 62.6637 58.598 62.4166 58.5177 62.134C58.4373 61.8514 58.4467 61.5473 58.5458 61.2218C58.179 61.4144 57.8201 61.5003 57.4679 61.4643ZM58.2311 59.5295C58.491 59.7692 58.7905 59.7026 59.1306 59.345L60.0505 58.355L59.2871 57.65L58.3673 58.64C58.0109 58.9836 57.9713 59.2898 58.2311 59.5295ZM61.8683 60.0175L61.1373 59.3406L60.4299 60.1034C60.0897 60.461 60.049 60.7521 60.2927 60.9777C60.5363 61.2034 60.8207 61.1379 61.1609 60.7802L61.8683 60.0175Z" fill="#FFFFFF"/>
<path d="M51.8019 62.1854C52.4549 62.17 53.0427 62.3107 53.5814 62.6217C54.1201 62.9327 54.5611 63.3719 54.8754 63.9564C55.2048 64.5399 55.3525 65.1361 55.3196 65.7601C55.2867 66.3842 55.0983 66.9585 54.7403 67.4992C54.3822 68.0399 53.8957 68.4834 53.2657 68.8309C52.6357 69.1784 51.9942 69.3598 51.3563 69.3743C50.7033 69.3897 50.1156 69.249 49.5769 68.938C49.0382 68.627 48.5971 68.1878 48.2829 67.6033C47.9535 67.0198 47.8058 66.4236 47.8386 65.7996C47.8715 65.1755 48.0599 64.6012 48.418 64.0605C48.7761 63.5198 49.2625 63.0763 49.8926 62.7288C50.5226 62.3813 51.149 62.2009 51.8019 62.1854ZM50.2073 64.86C50.0706 65.0819 50.0127 65.3438 50.0174 65.6316C50.0221 65.9194 50.1025 66.2019 50.2747 66.4931C50.4318 66.7853 50.6453 67.013 50.8839 67.1631C51.1224 67.3131 51.3719 67.4018 51.6314 67.4139C51.8908 67.4261 52.145 67.3627 52.394 67.224C52.6429 67.0852 52.8282 66.9054 52.965 66.6835C53.1017 66.4616 53.1597 66.1997 53.155 65.912C53.1503 65.6242 53.0699 65.3417 52.8976 65.0505C52.7254 64.7593 52.527 64.5305 52.2885 64.3805C52.0499 64.2304 51.8004 64.1417 51.541 64.1296C51.2816 64.1175 51.0274 64.1808 50.7784 64.3196C50.5294 64.4583 50.329 64.6392 50.2073 64.86Z" fill="#FFFFFF"/>
<path d="M41.6532 67.4309L42.2531 67.3129L41.9265 65.6668L44.1468 65.2377L45.421 71.7941L42.2559 72.4108C41.656 72.5288 41.1093 72.5369 40.6147 72.4199C40.1201 72.3029 39.7252 72.0879 39.3986 71.7618C39.0871 71.4347 38.8763 71.0247 38.7803 70.5155C38.6874 70.0517 38.7187 69.6246 38.858 69.2204C38.9983 68.8312 39.2487 68.495 39.6092 68.2117L37.8307 66.4551L40.2002 65.9853L41.6532 67.4309ZM41.3559 70.6078C41.5307 70.7169 41.7749 70.7301 42.0754 70.6786L42.885 70.5155L42.5808 68.9741L41.7711 69.1372C41.4706 69.1886 41.2661 69.3092 41.1404 69.4697C41.0147 69.6303 40.9829 69.8298 41.0309 70.0844C41.0779 70.3238 41.1812 70.4987 41.3559 70.6078Z" fill="#FFFFFF"/>
<path d="M30.7802 66.9991L33.3097 67.2766L33.8876 66.1748L36.1717 66.424L32.5005 72.7307L30.2932 72.4913L28.138 65.5317L30.4534 65.7939L30.7802 66.9991ZM31.2162 68.6817L31.6715 70.4237L32.5047 68.834L31.2162 68.6817Z" fill="#FFFFFF"/>
<path d="M23.2319 68.6729L25.0263 69.4287L24.3496 71.0442L18.6717 68.676L19.3484 67.0604L21.1568 67.8L23.0548 63.2368L25.13 64.1097L23.2319 68.6729Z" fill="#FFFFFF"/>
<path d="M18.0471 60.4601C18.3006 61.0494 18.3737 61.6665 18.2944 62.2792C18.2001 62.8929 17.9503 63.4568 17.5299 63.972C17.1096 64.4872 16.6021 64.8416 16.0086 65.0503C15.4151 65.2589 14.8091 65.2864 14.1775 65.1638C13.5448 65.0261 12.9471 64.7342 12.3994 64.287C11.8507 63.8248 11.435 63.3076 11.1966 62.7172C10.9431 62.128 10.8701 61.5108 10.9493 60.8982C11.0437 60.2845 11.2935 59.7205 11.7138 59.2053C12.1342 58.6901 12.6416 58.3357 13.2351 58.1271C13.8286 57.9184 14.4347 57.891 15.0663 58.0136C15.699 58.1512 16.2967 58.4431 16.8443 58.8903C17.392 59.3375 17.8077 59.8547 18.0471 60.4601ZM14.9731 59.9628C14.7117 59.9205 14.4557 59.9536 14.1897 60.0634C13.9237 60.1731 13.6932 60.3563 13.4679 60.615C13.2577 60.8726 13.1242 61.14 13.0674 61.4171C13.0105 61.6943 13.0293 61.9662 13.1065 62.2036C13.1999 62.4551 13.3517 62.672 13.5608 62.8395C13.771 63.022 14.0214 63.1258 14.2827 63.1682C14.544 63.2105 14.8001 63.1773 15.0661 63.0676C15.3321 62.9578 15.5626 62.7747 15.7879 62.516C15.998 62.2584 16.1315 61.991 16.1884 61.7138C16.2452 61.4367 16.2264 61.1648 16.1492 60.9274C16.0558 60.6759 15.9041 60.4589 15.6949 60.2915C15.4696 60.11 15.2344 60.0052 14.9731 59.9628Z" fill="#FFFFFF"/>
<path d="M9.44863 52.9563L9.77185 53.4658L11.1804 52.5603L12.3884 54.4673L6.76839 58.0734L5.05027 55.3658C4.72601 54.8412 4.50946 54.3394 4.44487 53.8421C4.36518 53.3458 4.42444 52.8853 4.6086 52.4769C4.79275 52.0685 5.1018 51.712 5.53784 51.4379C5.94473 51.181 6.34488 51.0463 6.76845 51.0316C7.17694 51.0179 7.59378 51.1254 7.98877 51.356L8.96831 49.0663L10.2601 51.0891L9.44863 52.9563ZM6.38689 53.857C6.35518 54.0569 6.41714 54.2959 6.58577 54.5426L7.02818 55.2413L8.35033 54.4027L7.90792 53.7039C7.73824 53.4422 7.56077 53.2874 7.36042 53.2407C7.15903 53.1789 6.96494 53.223 6.74692 53.3601C6.54295 53.4809 6.41861 53.657 6.38689 53.857Z" fill="#FFFFFF"/>
<path d="M4.80155 43.6641L7.14397 42.9995L7.75061 45.1706L5.3941 45.8514L2.02171 49.4387L1.36234 47.1651L3.20515 45.2164L0.602213 44.5347L0.000793457 42.439L4.80155 43.6641Z" fill="#FFFFFF"/>
</g>
<defs>
<clipPath id="clip0_910_2">
<rect width="75" height="75" fill="white"/>
</clipPath>
</defs>
</svg>
