<svg id="visual" viewBox="0 0 960 540" width="960" height="540" xmlns="http://www.w3.org/2000/svg" xmlns:xlink="http://www.w3.org/1999/xlink" version="1.1"><rect x="0" y="0" width="960" height="540" fill="#002233"></rect><path d="M0 384L17.8 388.2C35.7 392.3 71.3 400.7 106.8 400.8C142.3 401 177.7 393 213.2 396.2C248.7 399.3 284.3 413.7 320 427.8C355.7 442 391.3 456 426.8 447.5C462.3 439 497.7 408 533.2 406.3C568.7 404.7 604.3 432.3 640 444.8C675.7 457.3 711.3 454.7 746.8 456C782.3 457.3 817.7 462.7 853.2 457.2C888.7 451.7 924.3 435.3 942.2 427.2L960 419L960 541L942.2 541C924.3 541 888.7 541 853.2 541C817.7 541 782.3 541 746.8 541C711.3 541 675.7 541 640 541C604.3 541 568.7 541 533.2 541C497.7 541 462.3 541 426.8 541C391.3 541 355.7 541 320 541C284.3 541 248.7 541 213.2 541C177.7 541 142.3 541 106.8 541C71.3 541 35.7 541 17.8 541L0 541Z" fill="#0066FF" stroke-linecap="round" stroke-linejoin="miter"></path></svg>